<?xml version="1.0" encoding="UTF-8" standalone="no"?>
<svg
   height="296"
   width="1450"
   viewBox="-120.045 -61.56275 1257.138 136.66931"
   version="1.1"
   id="svg564"
   sodipodi:docname="Android-Messages.svg"
   inkscape:version="1.2.2 (b0a8486541, 2022-12-01)"
   xml:space="preserve"
   xmlns:inkscape="http://www.inkscape.org/namespaces/inkscape"
   xmlns:sodipodi="http://sodipodi.sourceforge.net/DTD/sodipodi-0.dtd"
   xmlns="http://www.w3.org/2000/svg"
   xmlns:svg="http://www.w3.org/2000/svg"><defs
     id="defs568" /><sodipodi:namedview
     id="namedview566"
     pagecolor="#ffffff"
     bordercolor="#000000"
     borderopacity="0.25"
     inkscape:showpageshadow="2"
     inkscape:pageopacity="0.0"
     inkscape:pagecheckerboard="0"
     inkscape:deskcolor="#d1d1d1"
     showgrid="false"
     inkscape:zoom="0.3658355"
     inkscape:cx="241.91201"
     inkscape:cy="440.08851"
     inkscape:window-width="1920"
     inkscape:window-height="919"
     inkscape:window-x="0"
     inkscape:window-y="32"
     inkscape:window-maximized="1"
     inkscape:current-layer="svg564" /><style
     type="text/css"
     id="style136">.st0{fill:#1A73E8;} .st1{fill:#185ABC;} .st2{fill:#FFFFFF;} .st3{fill:#8AB4F8;}</style><g
     id="g150"
     transform="matrix(2.1264789,0,0,2.093711,-119.37512,-121.68207)"><path
       class="st0"
       d="M 122.88,61.41 C 122.88,27.49 95.39,0 61.47,0 27.55,0 0.06,27.49 0.06,61.41 c 0,33.92 27.49,61.41 61.41,61.41 33.92,0 61.41,-27.5 61.41,-61.41 z"
       id="path138" /><path
       class="st1"
       d="M 83.82,87.93 H 41.97 c -5.95,0 -11.14,-4.49 -11.14,-10.45 v -0.06 3.48 c 0,5.95 5.19,11.14 11.14,11.14 h 41.85 c 6.01,0 11.14,-5.25 11.14,-11.14 v -3.48 c 0,5.96 -5.19,10.51 -11.14,10.51 z m -53.05,-30 V 53.18 L 22.98,40.33 C 22.54,39.63 22.35,39 22.41,38.37 v 5.44 c 0,0.51 0.19,1.01 0.51,1.58 z"
       id="path140" /><path
       class="st2"
       d="M 83.82,36.28 H 25.2 c -2.34,0 -3.67,2.03 -2.09,4.18 l 7.66,13.29 v 23.74 c 0,6.08 4.43,11.14 10.45,11.14 h 42.54 c 6.01,0 11.14,-5.13 11.14,-11.14 V 47.48 C 94.96,41.4 89.83,36.28 83.82,36.28 Z"
       id="path142" /><path
       class="st3"
       d="M 83.12,53.05 H 42.67 c -1.77,0 -3.48,-1.08 -3.48,-2.79 0,-1.71 1.71,-2.79 3.48,-2.79 h 40.45 c 1.77,0 3.48,1.08 3.48,2.79 0,1.72 -1.7,2.79 -3.48,2.79 z m 0,11.14 H 42.67 c -1.77,0 -3.48,-1.08 -3.48,-2.79 0,-1.71 1.71,-2.79 3.48,-2.79 h 40.45 c 1.77,0 3.48,1.08 3.48,2.79 0,1.72 -1.7,2.79 -3.48,2.79 z M 71.92,75.4 H 42.61 c -1.77,0 -3.48,-1.08 -3.48,-2.79 0,-1.71 1.71,-2.79 3.48,-2.79 h 29.31 c 1.77,0 3.48,1.08 3.48,2.79 0,1.71 -1.71,2.79 -3.48,2.79 z"
       id="path144" /><path
       class="st1"
       d="m 122.88,61.09 c -0.13,26.91 -17.66,49.76 -41.85,57.86 -6.14,2.09 -12.72,3.17 -19.56,3.17 -33.81,0 -61.22,-27.29 -61.41,-61.03 v 0.38 c 0,33.93 27.48,61.41 61.41,61.41 6.84,0 13.42,-1.14 19.56,-3.17 24.31,-8.17 41.85,-31.15 41.85,-58.24 z"
       id="path146" /><path
       class="st3"
       d="M 80.97,3.17 C 74.83,1.08 68.25,0 61.41,0 27.48,0 0,27.48 0,61.41 v 0.38 C 0.19,28.04 27.6,0.76 61.41,0.76 c 6.84,0 13.42,1.14 19.56,3.17 24.25,8.1 41.72,30.96 41.85,57.86 V 61.41 C 122.88,34.31 105.34,11.33 80.97,3.17 Z"
       id="path148" /></g><text
     xml:space="preserve"
     style="font-style:italic;font-variant:normal;font-weight:normal;font-stretch:normal;font-size:208.079px;font-family:Roboto;-inkscape-font-specification:'Roboto, Italic';font-variant-ligatures:normal;font-variant-caps:normal;font-variant-numeric:normal;font-variant-east-asian:normal;fill:#ffffff;stroke-width:0.866992"
     x="206.04138"
     y="56.270256"
     id="text484"><tspan
       sodipodi:role="line"
       id="tspan482"
       style="font-style:italic;font-variant:normal;font-weight:normal;font-stretch:normal;font-size:208.079px;font-family:Roboto;-inkscape-font-specification:'Roboto, Italic';font-variant-ligatures:normal;font-variant-caps:normal;font-variant-numeric:normal;font-variant-east-asian:normal;fill:#ffffff;stroke-width:0.866992"
       x="206.04138"
       y="56.270256">Messages</tspan></text></svg>
