<?xml version="1.0" encoding="UTF-8" standalone="no"?>
<!-- Uploaded to: SVG Repo, www.svgrepo.com, Generator: SVG Repo Mixer Tools -->

<svg
   fill="#000000"
   width="800px"
   height="800px"
   viewBox="0 0 36 36"
   version="1.1"
   preserveAspectRatio="xMidYMid meet"
   id="svg14"
   sodipodi:docname="copy-to-clipboard.svg"
   inkscape:version="1.2.2 (b0a8486541, 2022-12-01)"
   xmlns:inkscape="http://www.inkscape.org/namespaces/inkscape"
   xmlns:sodipodi="http://sodipodi.sourceforge.net/DTD/sodipodi-0.dtd"
   xmlns="http://www.w3.org/2000/svg"
   xmlns:svg="http://www.w3.org/2000/svg"
   xmlns:rdf="http://www.w3.org/1999/02/22-rdf-syntax-ns#"
   xmlns:cc="http://creativecommons.org/ns#"
   xmlns:dc="http://purl.org/dc/elements/1.1/">
  <defs
     id="defs18" />
  <sodipodi:namedview
     id="namedview16"
     pagecolor="#ffffff"
     bordercolor="#000000"
     borderopacity="0.25"
     inkscape:showpageshadow="2"
     inkscape:pageopacity="0"
     inkscape:pagecheckerboard="true"
     inkscape:deskcolor="#d1d1d1"
     showgrid="false"
     inkscape:zoom="0.47520434"
     inkscape:cx="316.70586"
     inkscape:cy="521.88076"
     inkscape:window-width="1920"
     inkscape:window-height="919"
     inkscape:window-x="0"
     inkscape:window-y="32"
     inkscape:window-maximized="1"
     inkscape:current-layer="svg14" />
  <title
     id="title2">copy-to-clipboard-line</title>
  <path
     d="M22.6,4H21.55a3.89,3.89,0,0,0-7.31,0H13.4A2.41,2.41,0,0,0,11,6.4V10H25V6.4A2.41,2.41,0,0,0,22.6,4ZM23,8H13V6.25A.25.25,0,0,1,13.25,6h2.69l.12-1.11A1.24,1.24,0,0,1,16.61,4a2,2,0,0,1,3.15,1.18l.09.84h2.9a.25.25,0,0,1,.25.25Z"
     class="clr-i-outline clr-i-outline-path-1"
     id="path4"
     style="fill:#ff8080" />
  <path
     d="M33.25,18.06H21.33l2.84-2.83a1,1,0,1,0-1.42-1.42L17.5,19.06l5.25,5.25a1,1,0,0,0,.71.29,1,1,0,0,0,.71-1.7l-2.84-2.84H33.25a1,1,0,0,0,0-2Z"
     class="clr-i-outline clr-i-outline-path-2"
     id="path6"
     style="fill:#ff8080" />
  <path
     d="M29,16h2V6.68A1.66,1.66,0,0,0,29.35,5H27.08V7H29Z"
     class="clr-i-outline clr-i-outline-path-3"
     id="path8"
     style="fill:#ff8080" />
  <path
     d="M29,31H7V7H9V5H6.64A1.66,1.66,0,0,0,5,6.67V31.32A1.66,1.66,0,0,0,6.65,33H29.36A1.66,1.66,0,0,0,31,31.33V22.06H29Z"
     class="clr-i-outline clr-i-outline-path-4"
     id="path10"
     style="fill:#ff8080" />
  <rect
     x="0"
     y="0"
     width="36"
     height="36"
     fill-opacity="0"
     id="rect12"
     style="fill:#ff8080" />
  <metadata
     id="metadata936">
    <rdf:RDF>
      <cc:Work
         rdf:about="">
        <dc:title>copy-to-clipboard-line</dc:title>
      </cc:Work>
    </rdf:RDF>
  </metadata>
</svg>
