<?xml version="1.0" encoding="UTF-8" standalone="no"?>
<svg
   height="296"
   width="1400"
   viewBox="-37.08945 -68.698 375.01502 152.50956"
   version="1.1"
   id="svg7911"
   sodipodi:docname="Crunchyroll-Logo.svg"
   inkscape:version="1.2.1 (9c6d41e410, 2022-07-14, custom)"
   xmlns:inkscape="http://www.inkscape.org/namespaces/inkscape"
   xmlns:sodipodi="http://sodipodi.sourceforge.net/DTD/sodipodi-0.dtd"
   xmlns="http://www.w3.org/2000/svg"
   xmlns:svg="http://www.w3.org/2000/svg">
  <defs
     id="defs7915" />
  <sodipodi:namedview
     id="namedview7913"
     pagecolor="#ffffff"
     bordercolor="#000000"
     borderopacity="0.25"
     inkscape:showpageshadow="2"
     inkscape:pageopacity="0.0"
     inkscape:pagecheckerboard="true"
     inkscape:deskcolor="#d1d1d1"
     showgrid="false"
     inkscape:zoom="1.7189512"
     inkscape:cx="194.01365"
     inkscape:cy="141.36527"
     inkscape:window-width="1920"
     inkscape:window-height="919"
     inkscape:window-x="0"
     inkscape:window-y="0"
     inkscape:window-maximized="1"
     inkscape:current-layer="svg7911" />
  <path
     d="m 300.24677,67.282438 c 0,-0.273018 2.16183,-6.667922 4.80165,-14.215277 2.63982,-7.544728 4.80166,-14.514546 4.80166,-15.488481 0,-0.971312 -4.32367,-15.407104 -9.60331,-32.0742843 -5.27964,-16.6698067 -9.60329,-30.9034597 -9.60329,-31.6306297 0,-0.876808 2.53335,-1.320462 7.51534,-1.320462 h 7.51317 l 6.08353,22.9124547 c 3.34595,12.6007999 6.22477,22.3926693 6.39859,21.7521293 0.17377,-0.637917 2.8397,-10.8156853 5.92493,-22.6236843 l 5.60771,-21.4607377 7.84342,-0.338645 c 4.31497,-0.183766 7.8456,-0.118141 7.8456,0.149631 0,0.703547 -24.42541,78.936132 -27.22385,87.200157 l -2.35954,6.959316 -7.77388,0.338647 c -4.27369,0.183766 -7.77173,0.112889 -7.77173,-0.160134 z M -20.142768,42.170095 c -7.680468,-1.950499 -13.123061,-6.969818 -16.973072,-15.656493 -1.796816,-4.050632 -2.064056,-6.536664 -2.064056,-19.1558384 0,-15.9006339 1.04941,-20.0510216 6.865707,-27.1599726 6.331224,-7.738993 19.371724,-10.46654 31.78214098,-6.646921 L 4.508599,-24.895032 V -9.7950743 L 1.868776,-10.616751 c -5.218807,-1.627604 -12.319164,-2.370526 -16.288672,-1.703733 -7.300247,1.225952 -10.837389,7.6497347 -10.837389,19.6782476 0,11.6898654 3.226448,17.8590064 10.350705,19.7937544 3.432853,0.931933 8.212777,0.375398 16.823157,-1.95575 L 4.60637,24.465973 4.317402,31.750809 C 4.028433,39.014644 4.01757,39.040896 0.45869998,40.524116 -4.386405,42.545495 -15.249866,43.411798 -20.142768,42.170095 Z m 94.651166,0.04464 C 66.410768,40.43486 61.689508,36.111211 58.608638,27.645049 57.218108,23.828056 56.857448,18.6066 56.546748,-2.2135943 l -0.37587,-25.2331017 h 14.48099 l 0.29548,23.6921297 c 0.2868,23.0594603 0.35415,23.7682553 2.55944,26.6034353 4.39535,5.644109 15.4826,4.683297 18.09852,-1.569849 0.85387,-2.039755 1.21671,-9.692114 1.22757,-25.8132613 l 0.0131,-22.9124547 h 14.402772 v 23.5739967 c 0,26.9998363 -0.96033,33.1952293 -6.10961,39.4168743 -4.910282,5.932876 -16.621092,8.867812 -26.628512,6.667923 z m 125.399112,0.603787 c -0.52797,-0.257265 -2.52033,-0.779674 -4.4236,-1.162947 -5.53385,-1.113071 -11.71082,-6.809684 -14.83297,-13.684994 -2.46385,-5.42097 -2.81582,-7.486975 -3.12868,-18.2921594 -0.29767,-10.23027391 -0.0325,-13.2177129 1.65341,-18.6360569 4.00428,-12.8501897 11.86291,-18.9274517 24.57316,-18.9983307 4.22371,-0.02626 9.95092,0.656291 12.72112,1.506848 l 5.04062,1.554098 v 15.0999547 l -2.63982,-0.8216767 c -5.21879,-1.627603 -12.31699,-2.370525 -16.28866,-1.703733 -7.30025,1.225953 -10.83739,7.6497347 -10.83739,19.6782486 0,18.5415494 7.92163,23.7761304 27.14996,17.9430104 l 2.61591,-0.792799 v 15.057954 l -4.46053,1.357211 c -4.81469,1.464844 -15.57819,2.654043 -17.14253,1.89537 z m 215.9656,-70.70887 c -6.55936,-0.01834 -8.60386,0.47778 -13.20997,3.202704 -9.69673,5.730738 -13.40117,14.58805 -13.40117,32.0427816 0,20.3135374 6.27909,31.4337434 19.62811,34.7703304 5.23836,1.312582 15.59557,0.341271 20.02352,-1.87437 9.38386,-4.696423 14.40279,-16.160525 14.40279,-32.8933344 0,-13.3542229 -2.27917,-21.1667176 -8.03897,-27.5826246 -5.27094,-5.869872 -9.7467,-7.639235 -19.40431,-7.665487 z m -0.0499,14.519797 c 0.56489,0.01575 1.14935,0.05775 1.75771,0.131258 7.97812,0.924059 11.31972,7.0065687 11.31972,20.5944306 0,8.4792874 -1.38617,14.0866424 -4.30193,17.3943514 -3.35463,3.809118 -11.32842,4.502162 -15.48476,1.344086 -3.87827,-2.948062 -5.1645,-7.673361 -5.1645,-18.9458253 0,-14.706183 3.42633,-20.7519407 11.87376,-20.5183007 z M 17.216674,8.8068556 l 0.254205,-32.1950426 5.053683,-2.024002 c 2.778874,-1.113071 9.368648,-2.367904 14.643944,-2.782679 l 9.588091,-0.761299 v 15.26272 l -5.518638,0.724547 c -3.039596,0.399025 -6.496349,0.968686 -7.68264,1.26533 l -2.161829,0.543409 V 41.001896 H 16.962469 Z M 118.77049,11.93868 c 0,-31.559753 0.36935,-34.153417 5.24921,-36.836338 7.88688,-4.342026 28.04077,-4.567791 34.81522,-0.393774 8.96019,5.525975 9.8662,9.272088 9.8662,40.732082 V 41.001896 H 155.25867 V 19.131633 c 0,-12.2779013 -0.44323,-23.4007323 -1.00813,-25.3643563 -1.2971,-4.4916597 -4.39536,-6.1323887 -11.58261,-6.1323887 -9.99439,0 -9.49467,-1.467468 -9.49467,27.884517 V 41.001896 H 118.77049 Z M 232.07421,-5.9859583 V -52.97119 h 15.36311 v 26.438054 l 3.60015,-1.008066 c 5.13406,-1.443841 9.64674,-1.296832 15.35441,0.490907 6.85051,2.147388 11.25021,6.106139 14.38106,12.942072 2.62895,5.7438637 2.65936,6.0536337 2.99832,30.45718 l 0.34327,24.650313 h -14.59397 l -0.009,-20.591806 c 0,-11.3249674 -0.45628,-22.5501783 -1.00596,-24.9390793 -1.28842,-5.6126067 -4.77994,-7.8334967 -12.30614,-7.8334967 -9.4512,0 -8.7668,-2.134261 -8.7668,27.38836 V 41.001896 H 232.0692 V -5.9859583 Z m 122.16832,14.7928139 0.25637,-32.1950426 5.05151,-2.024002 c 2.78105,-1.113071 9.36864,-2.367904 14.64394,-2.782679 l 9.59027,-0.761299 v 15.26272 l -5.523,0.724547 c -3.03524,0.399025 -6.49198,0.968686 -7.68045,1.26533 l -2.15966,0.543409 v 52.162057 h -14.4332 z M 453.87784,-5.9859583 V -52.97119 h 15.3631 v 93.973086 h -15.3631 z m 29.76588,0 V -52.97119 h 14.40279 v 93.973086 h -14.40279 z"
     fill="#3c3a39"
     id="path7905"
     style="fill:#ffffff;stroke-width:2.38824" />
  <path
     d="m -139.96311,83.140566 c -2.49731,-0.24069 -9.0684,-1.417177 -11.50645,-2.060493 -21.07303,-5.561504 -38.91909,-20.476551 -48.3636,-40.420656 -5.17741,-10.933371 -7.3353,-20.711411 -7.32684,-33.201274 0.008,-12.5044524 2.19954,-22.477965 7.29296,-33.201277 3.81549,-8.030449 8.20328,-14.322061 14.4328,-20.692447 11.65322,-11.914385 26.41345,-19.291311 43.13259,-21.553842 5.46601,-0.739588 17.03667,-0.498894 22.14139,0.460238 10.61731,1.996308 20.14862,5.916712 28.690594,11.799873 17.747274,12.224373 29.257242,30.918322 32.258402,52.3897461 0.642155,4.5972685 1.014733,14.1645149 0.581466,14.9631839 -0.23569,0.436167 -0.358477,-0.02042 -0.513012,-1.9109695 -0.76634,-9.36739774 -4.686976,-20.6946345 -10.095833,-29.1685465 -16.440403,-25.756515 -47.114597,-36.684053 -75.514467,-26.901638 -21.92053,7.550517 -38.3948,26.706165 -42.91663,49.9011088 -2.23553,11.4694642 -1.56515,22.7120932 2.01817,33.8103072 6.31775,19.573583 21.43926,35.209977 40.6169,42.000484 4.52256,1.601714 10.33083,2.936475 14.16043,3.253756 4.58676,0.380737 3.4309,0.742509 -2.22776,0.697283 -3.08726,-0.02409 -6.17451,-0.0985 -6.86111,-0.16411 z"
     fill="#f78b24"
     id="path7907"
     style="stroke-width:0.717419" />
  <path
     d="m -126.17411,58.192252 c -23.56497,-1.779762 -43.09009,-19.997755 -47.16502,-44.008157 -0.74146,-4.3697594 -0.88387,-12.5390571 -0.28971,-16.5604282 3.53337,-23.8758448 21.24657,-41.9905628 44.35487,-45.3573428 4.68382,-0.682229 13.03007,-0.443668 17.51607,0.501854 3.90166,0.821875 8.22702,2.28234 11.62501,3.923182 l 2.634774,1.272816 -2.479754,1.213903 c -8.95024,4.382123 -14.47372,14.632292 -13.17738,24.451885 1.29844,9.833413 7.85663,17.5503149 17.271954,20.3250539 3.389567,0.999342 8.572138,0.998614 11.963819,0 4.384273,-1.292455 7.822956,-3.40532901 10.952283,-6.7306511 1.056436,-1.122988 1.988709,-1.9259539 2.071478,-1.7855799 0.0835,0.141101 0.324786,1.6888449 0.536634,3.440241 0.523307,4.319572 0.216063,12.5376011 -0.621515,16.6411611 -2.667741,13.067817 -9.390073,24.037308 -19.697689,32.141872 -9.755544,7.670359 -22.660754,11.49899 -35.495124,10.530191 z"
     fill="#f78b24"
     id="path7909"
     style="stroke-width:0.714287" />
</svg>
