<?xml version="1.0" encoding="UTF-8" standalone="no"?>
<svg
   height="296"
   width="1411"
   viewBox="-5.25 -4.838225 53.500487 10.74086"
   version="1.1"
   id="svg8482"
   sodipodi:docname="Foxtel-Logo.wine.svg"
   inkscape:version="1.2.1 (9c6d41e410, 2022-07-14, custom)"
   xmlns:inkscape="http://www.inkscape.org/namespaces/inkscape"
   xmlns:sodipodi="http://sodipodi.sourceforge.net/DTD/sodipodi-0.dtd"
   xmlns="http://www.w3.org/2000/svg"
   xmlns:svg="http://www.w3.org/2000/svg">
  <defs
     id="defs8486" />
  <sodipodi:namedview
     id="namedview8484"
     pagecolor="#ffffff"
     bordercolor="#000000"
     borderopacity="0.25"
     inkscape:showpageshadow="2"
     inkscape:pageopacity="0.0"
     inkscape:pagecheckerboard="0"
     inkscape:deskcolor="#d1d1d1"
     showgrid="false"
     inkscape:zoom="0.52477741"
     inkscape:cx="511.6455"
     inkscape:cy="407.79194"
     inkscape:window-width="1920"
     inkscape:window-height="919"
     inkscape:window-x="0"
     inkscape:window-y="0"
     inkscape:window-maximized="1"
     inkscape:current-layer="svg8482" />
  <g
     fill-rule="evenodd"
     fill="none"
     id="g8480"
     transform="matrix(1.0501905,0,0,1.1075255,-10.05858,-10.120662)">
    <path
       fill-rule="nonzero"
       fill="#f2320a"
       d="m 33.3916,4.9568 h 1.561 v 9.375 h -1.5605 z m -3.7622,2.982 c -1.8501,0 -3.286,1.4906 -3.286,3.302 0,1.811 1.4359,3.2471 3.286,3.2471 1.054,0 1.9904,-0.3903 2.5994,-1.2254 l -1.0615,-0.929 c -0.3356,0.437 -0.812,0.726 -1.538,0.726 -0.8115,0 -1.4988,-0.5155 -1.7252,-1.288 h 4.6294 c 0.0235,-0.203 0.0391,-0.3981 0.0391,-0.6168 0,-1.717 -1.1628,-3.2159 -2.9428,-3.2159 z m -1.7015,2.607 c 0.2265,-0.7339 0.8351,-1.249 1.7015,-1.249 0.8354,0 1.374,0.5777 1.4518,1.249 z M 24.493,5.9478 h -1.561 v 8.3918 h 1.561 v -4.879 h 1.5145 V 8.0871 H 24.493 Z M 22.2295,8.087 h -1.85 L 18.9119,9.9757 17.4914,8.087 h -1.8736 l 2.2948,2.9894 -2.4978,3.2632 h 1.8736 l 1.561,-2.0918 1.5379,2.0918 h 1.8813 l -2.4512,-3.232 z"
       id="path8474" />
    <path
       fill-rule="nonzero"
       fill="#f2320a"
       d="m 12.4876,7.9388 c -1.8035,0 -3.302,1.4597 -3.302,3.2785 0,1.811 1.4989,3.2785 3.302,3.2785 1.8035,0 3.302,-1.4597 3.302,-3.2785 0,-1.8188 -1.4989,-3.2785 -3.302,-3.2785 z m 0,5.1364 c -1.0146,0 -1.8035,-0.812 -1.8035,-1.8657 0,-1.0541 0.7889,-1.8657 1.8035,-1.8657 1.0146,0 1.8035,0.812 1.8035,1.8653 0,1.054 -0.789,1.866 -1.8035,1.866 z M 7.4529,7.4232 c 0,-0.741 0.234,-1.085 0.8977,-1.085 H 9.2248 V 4.9647 H 8.2332 c -1.3732,0 -2.349,0.6169 -2.349,2.4665 V 8.0954 H 4.783 V 9.469 h 1.101 v 4.879 H 7.4454 V 9.4685 h 1.514 V 8.0953 H 7.4452 V 7.424 H 7.453 Z"
       id="path8476" />
    <path
       d="M 35,19.353 H 0 V 0 h 35 z"
       id="path8478" />
  </g>
  <text
     xml:space="preserve"
     style="font-style:italic;font-size:13.8764px;font-family:Roboto;-inkscape-font-specification:'Roboto, Italic';fill:#ff2a2a;stroke-width:0.0578183"
     x="27.446718"
     y="5.8333907"
     id="text8656"
     transform="scale(1.0126434,0.98751446)"><tspan
       sodipodi:role="line"
       id="tspan8654"
       style="font-style:normal;font-variant:normal;font-weight:normal;font-stretch:normal;font-size:13.8764px;font-family:Cantarell;-inkscape-font-specification:'Cantarell, @wght=700';font-variant-ligatures:normal;font-variant-caps:normal;font-variant-numeric:normal;font-variant-east-asian:normal;font-variation-settings:'wght' 700;stroke-width:0.0578183"
       x="27.446718"
       y="5.8333907">GO</tspan></text>
</svg>
