<?xml version="1.0" encoding="UTF-8" standalone="no"?>
<svg
   width="24"
   height="24"
   fill-rule="evenodd"
   clip-rule="evenodd"
   version="1.1"
   id="svg4"
   sodipodi:docname="link-thin.svg"
   inkscape:version="1.2.1 (9c6d41e410, 2022-07-14, custom)"
   inkscape:export-filename="link-thin.svg"
   inkscape:export-xdpi="96"
   inkscape:export-ydpi="96"
   xmlns:inkscape="http://www.inkscape.org/namespaces/inkscape"
   xmlns:sodipodi="http://sodipodi.sourceforge.net/DTD/sodipodi-0.dtd"
   xmlns="http://www.w3.org/2000/svg"
   xmlns:svg="http://www.w3.org/2000/svg">
  <defs
     id="defs8" />
  <sodipodi:namedview
     id="namedview6"
     pagecolor="#ffffff"
     bordercolor="#000000"
     borderopacity="0.25"
     inkscape:showpageshadow="2"
     inkscape:pageopacity="0.0"
     inkscape:pagecheckerboard="0"
     inkscape:deskcolor="#d1d1d1"
     showgrid="false"
     inkscape:zoom="30.791667"
     inkscape:cx="15.621109"
     inkscape:cy="9.2232746"
     inkscape:window-width="1920"
     inkscape:window-height="919"
     inkscape:window-x="0"
     inkscape:window-y="32"
     inkscape:window-maximized="1"
     inkscape:current-layer="svg4" />
  <path
     d="M14.851 11.923c-.179-.641-.521-1.246-1.025-1.749-1.562-1.562-4.095-1.563-5.657 0l-4.998 4.998c-1.562 1.563-1.563 4.095 0 5.657 1.562 1.563 4.096 1.561 5.656 0l3.842-3.841.333.009c.404 0 .802-.04 1.189-.117l-4.657 4.656c-.975.976-2.255 1.464-3.535 1.464-1.28 0-2.56-.488-3.535-1.464-1.952-1.951-1.952-5.12 0-7.071l4.998-4.998c.975-.976 2.256-1.464 3.536-1.464 1.279 0 2.56.488 3.535 1.464.493.493.861 1.063 1.105 1.672l-.787.784zm-5.703.147c.178.643.521 1.25 1.026 1.756 1.562 1.563 4.096 1.561 5.656 0l4.999-4.998c1.563-1.562 1.563-4.095 0-5.657-1.562-1.562-4.095-1.563-5.657 0l-3.841 3.841-.333-.009c-.404 0-.802.04-1.189.117l4.656-4.656c.975-.976 2.256-1.464 3.536-1.464 1.279 0 2.56.488 3.535 1.464 1.951 1.951 1.951 5.119 0 7.071l-4.999 4.998c-.975.976-2.255 1.464-3.535 1.464-1.28 0-2.56-.488-3.535-1.464-.494-.495-.863-1.067-1.107-1.678l.788-.785z"
     id="path2"
     style="fill:#ffffff" />
</svg>
