<?xml version="1.0" encoding="UTF-8" standalone="no"?>
<svg
   height="296"
   width="839"
   viewBox="-153.6 -69.1855 930.73288 153.59181"
   version="1.1"
   id="svg8464"
   sodipodi:docname="Mewe-Logo.svg"
   inkscape:version="1.2.2 (b0a8486541, 2022-12-01)"
   xml:space="preserve"
   xmlns:inkscape="http://www.inkscape.org/namespaces/inkscape"
   xmlns:sodipodi="http://sodipodi.sourceforge.net/DTD/sodipodi-0.dtd"
   xmlns="http://www.w3.org/2000/svg"
   xmlns:svg="http://www.w3.org/2000/svg"><defs
     id="defs8468" /><sodipodi:namedview
     id="namedview8466"
     pagecolor="#ffffff"
     bordercolor="#000000"
     borderopacity="0.25"
     inkscape:showpageshadow="2"
     inkscape:pageopacity="0.0"
     inkscape:pagecheckerboard="0"
     inkscape:deskcolor="#d1d1d1"
     showgrid="false"
     inkscape:zoom="0.47283274"
     inkscape:cx="3.1723691"
     inkscape:cy="-207.26145"
     inkscape:window-width="1920"
     inkscape:window-height="919"
     inkscape:window-x="0"
     inkscape:window-y="32"
     inkscape:window-maximized="1"
     inkscape:current-layer="svg8464" /><g
     id="g804"
     transform="matrix(19.211175,0,0,14.848569,-172.6962,-166.37448)"><g
       id="layer1"
       inkscape:label="Box" /><g
       id="layer2"
       inkscape:label="Text"><path
         id="path2"
         style="fill:#017da1;fill-opacity:1;stroke-width:2.20761"
         d="m 31.716022,7.4037659 c -0.546402,0 -0.913408,0.419301 -1.089474,1.028564 L 27.835589,18.482259 24.996883,8.3894739 a 1.1049583,1.3148718 0 0 0 -1.080791,-0.942851 c -0.599019,0 -1.106833,0.546096 -1.106835,1.258921 0,0.168575 0.03418,0.354263 0.0868,0.503569 L 26.546441,21.38581 c 0.212479,0.671874 0.598326,1.066061 1.128539,1.066061 h 0.217034 c 0.528193,0 0.929919,-0.394187 1.124196,-1.066061 l 2.751895,-9.594574 2.756237,9.594574 c 0.194278,0.671874 0.58096,1.066061 1.111175,1.066061 h 0.212679 c 0.528188,0 0.934256,-0.415861 1.128536,-1.066061 L 40.627116,9.2091129 a 1.2486433,1.4858533 0 0 0 0.104184,-0.524998 1.0624599,1.2642998 0 0 0 -1.072111,-1.237492 1.106982,1.31728 0 0 0 -1.05909,0.921424 L 35.761398,18.482259 32.97478,8.4323299 c -0.159876,-0.609263 -0.549728,-1.028564 -1.098155,-1.028564 z m 13.186526,3.5249771 c -2.66524,0 -4.553216,2.605802 -4.553216,5.774956 v 0.04287 c 0,3.419613 2.08362,5.748172 4.783263,5.748175 1.446964,0 2.502951,-0.567186 3.350889,-1.467848 a 0.93091723,1.1077675 0 0 0 0.282134,-0.771423 0.83984923,0.99939892 0 0 0 -0.846404,-1.033921 0.79330339,0.94401053 0 0 0 -0.551245,0.230343 3.3432071,3.9783301 0 0 1 -2.20499,0.964281 c -1.376131,0 -2.447406,-1.006347 -2.678106,-2.812481 h 5.842351 c 0.546405,0 1.002662,-0.49788 1.002662,-1.210705 0,-2.562301 -1.464607,-5.464247 -4.427338,-5.464247 z m -0.02178,2.078555 c 1.410535,0 2.223927,1.28206 2.365588,2.919621 h -4.783263 c 0.194278,-1.721849 1.112376,-2.919621 2.417675,-2.919621 z" /><path
         id="path2-3"
         d="m 6.9071981,0.67717932 a 1.4906887,1.9731647 0 1 0 0,3.94416158 1.4906887,1.9731647 0 0 0 0,-3.94416158 z M 22.071268,3.2062599 c -0.02222,0.0067 -0.0426,0.01158 -0.06445,0.02008 -0.0044,0.0017 -0.016,0.0085 -0.01133,0.01004 0.0236,0.0082 0.0498,-0.0081 0.0758,-0.03011 z M 2.0736508,6.6686919 A 1.0442585,1.382243 0 0 0 1.0273301,8.0586849 V 21.205888 c 0,0.763057 0.44146,1.344829 1.0159925,1.344829 a 1.0093205,1.3359969 0 0 0 1.0311569,-1.344829 v -9.383693 l 2.8773821,5.710504 c 0.2193327,0.447039 0.4898312,0.717573 0.8605611,0.717573 0.3901394,0 0.6620338,-0.267975 0.8833072,-0.717573 l 2.8925461,-5.755668 v 9.403768 a 1.0481405,1.3873814 0 0 0 1.031157,1.369918 1.0287305,1.3616892 0 0 0 1.050112,-1.369918 V 8.0586849 a 1.0442585,1.382243 0 0 0 -1.050112,-1.384975 h -0.21988 a 1.0481405,1.3873814 0 0 0 -0.947754,0.71256 L 6.8503329,14.843043 3.2602393,7.4063419 A 1.0966656,1.4516121 0 0 0 2.2935297,6.6686919 Z M 18.31816,10.366969 c -2.554349,0 -4.367252,2.776022 -4.367252,6.157107 v 0.04517 c 0,3.648287 1.99979,6.137038 4.587131,6.137038 1.387814,0 2.403452,-0.604738 3.214781,-1.565619 a 0.89286045,1.1818434 0 0 0 0.272956,-0.827975 0.80551541,1.0662283 0 0 0 -0.815071,-1.098945 0.75893138,1.0045669 0 0 0 -0.523159,0.245868 3.2123566,4.2520672 0 0 1 -2.115388,1.02869 c -1.319873,0 -2.350975,-1.073862 -2.570308,-3.000774 h 5.599331 c 0.52407,0 0.96292,-0.534162 0.96292,-1.294649 0,-2.733643 -1.402384,-5.825918 -4.245941,-5.825915 z m -0.01902,2.217962 c 1.354816,0 2.134949,1.364106 2.27082,3.111173 h -4.587063 c 0.186335,-1.836991 1.064373,-3.111173 2.316311,-3.111173 z"
         style="fill:#17387f;fill-opacity:1;stroke-width:2.23313" /><ellipse
         style="fill:#ea2b8d;fill-opacity:1;stroke-width:2.29249"
         id="path1668"
         cx="22.811022"
         cy="3.6816008"
         rx="1.564414"
         ry="1.8610277" /><ellipse
         style="fill:#ff8100;fill-opacity:1;stroke-width:2.29249"
         id="path1668-6"
         cx="31.746786"
         cy="3.6950505"
         rx="1.564414"
         ry="1.8610277" /><ellipse
         style="fill:#017da1;fill-opacity:1;stroke-width:2.25644"
         id="path1668-6-7"
         cx="40.700462"
         cy="3.7804816"
         rx="1.454141"
         ry="1.9396763" /></g></g></svg>
