<?xml version="1.0" encoding="UTF-8" standalone="no"?>
<svg
   width="1em"
   height="1em"
   viewBox="0 0 24 24"
   version="1.1"
   id="svg4"
   sodipodi:docname="mewe.svg"
   inkscape:version="1.2.2 (b0a8486541, 2022-12-01)"
   xmlns:inkscape="http://www.inkscape.org/namespaces/inkscape"
   xmlns:sodipodi="http://sodipodi.sourceforge.net/DTD/sodipodi-0.dtd"
   xmlns="http://www.w3.org/2000/svg"
   xmlns:svg="http://www.w3.org/2000/svg">
  <defs
     id="defs8" />
  <sodipodi:namedview
     id="namedview6"
     pagecolor="#ffffff"
     bordercolor="#000000"
     borderopacity="0.25"
     inkscape:showpageshadow="2"
     inkscape:pageopacity="0"
     inkscape:pagecheckerboard="true"
     inkscape:deskcolor="#d1d1d1"
     showgrid="false"
     inkscape:zoom="22.980212"
     inkscape:cx="14.490728"
     inkscape:cy="12.010333"
     inkscape:window-width="1920"
     inkscape:window-height="919"
     inkscape:window-x="0"
     inkscape:window-y="32"
     inkscape:window-maximized="1"
     inkscape:current-layer="layer1" />
  <g
     inkscape:groupmode="layer"
     id="layer1"
     inkscape:label="Box">
    <rect
       style="fill:#ffffff;fill-opacity:1;stroke-width:0.949958"
       id="rect1783"
       width="22.805296"
       height="22.776566"
       x="0.63307798"
       y="0.59129155"
       ry="2.0526898" />
  </g>
  <g
     inkscape:groupmode="layer"
     id="layer2"
     inkscape:label="Text">
    <path
       id="path2"
       style="fill:#017da1;fill-opacity:1;stroke-width:0.850122"
       d="m 14.991602,10.093727 c -0.234042,0 -0.391242,0.145165 -0.466657,0.356097 l -1.195458,3.479366 -1.21591,-3.494203 a 0.47328947,0.45521923 0 0 0 -0.462938,-0.326422 c -0.25658,0 -0.474093,0.189063 -0.474094,0.435848 0,0.05836 0.01464,0.122648 0.03718,0.174339 l 1.563578,4.215671 c 0.09101,0.232608 0.256282,0.369079 0.483389,0.369079 h 0.09296 c 0.226242,0 0.398315,-0.136471 0.48153,-0.369079 l 1.178726,-3.321719 1.180585,3.321719 c 0.08322,0.232608 0.248845,0.369079 0.475953,0.369079 h 0.0911 c 0.22624,0 0.400172,-0.143974 0.483389,-0.369079 l 1.563578,-4.215671 a 0.53483444,0.51441441 0 0 0 0.04462,-0.181758 0.45508604,0.4377108 0 0 0 -0.45922,-0.428429 0.47415631,0.45605297 0 0 0 -0.453642,0.319004 l -1.21591,3.501621 -1.1936,-3.479366 c -0.06847,-0.210932 -0.235459,-0.356097 -0.470368,-0.356097 z m 5.648217,1.220375 c -1.141609,0 -1.95029,0.90215 -1.95029,1.999337 v 0.01484 c 0,1.183897 0.892482,1.990063 2.048826,1.990064 0.619782,0 1.072095,-0.196364 1.435295,-0.508181 a 0.39874205,0.38351804 0 0 0 0.120847,-0.267073 0.35973467,0.34599997 0 0 0 -0.362543,-0.357951 0.33979758,0.32682406 0 0 0 -0.236116,0.07975 1.432004,1.37733 0 0 1 -0.944468,0.333842 c -0.589442,0 -1.048304,-0.348405 -1.14712,-0.973704 h 2.502468 c 0.234043,0 0.429473,-0.17237 0.429473,-0.419155 0,-0.88709 -0.627338,-1.891767 -1.896372,-1.891767 z m -0.0093,0.719613 c 0.604178,0 0.95258,0.443859 1.013258,1.010796 H 19.59495 c 0.08322,-0.596118 0.476467,-1.010796 1.035569,-1.010796 z" />
    <path
       id="path2-3"
       d="m 4.365178,7.7649286 a 0.63851034,0.68312554 0 1 0 0,1.3655005 0.63851034,0.68312554 0 0 0 0,-1.3655005 z m 6.495263,0.8755882 c -0.0095,0.00234 -0.01825,0.00401 -0.02761,0.00695 -0.0019,5.87e-4 -0.0069,0.00294 -0.0049,0.00348 0.01011,0.00283 0.02133,-0.0028 0.03247,-0.010424 z M 2.2948128,9.8392386 a 0.4472898,0.47854367 0 0 0 -0.448173,0.4812264 v 4.551668 c 0,0.264176 0.1890916,0.465591 0.4351825,0.465591 a 0.43232472,0.46253292 0 0 0 0.4416779,-0.465591 v -3.248711 l 1.2324762,1.977023 c 0.093947,0.154769 0.2098105,0.24843 0.3686062,0.24843 0.1671093,0 0.2835705,-0.09277 0.3783491,-0.24843 l 1.2389714,-1.992659 v 3.255661 a 0.44895259,0.48032265 0 0 0 0.4416778,0.474277 0.44063865,0.47142779 0 0 0 0.4497972,-0.474277 V 10.320465 A 0.4472898,0.47854367 0 0 0 6.3835809,9.8409759 H 6.2893994 A 0.44895259,0.48032265 0 0 0 5.8834457,10.08767 L 4.3408207,12.669265 2.8030672,10.094619 A 0.46973743,0.50255981 0 0 0 2.3889941,9.8392386 Z m 6.9580506,1.2803724 c -1.0941108,0 -1.8706357,0.961082 -1.8706357,2.131641 v 0.01564 c 0,1.263067 0.8565749,2.124692 1.9648169,2.124692 0.5944456,0 1.0294764,-0.209365 1.3769944,-0.54203 a 0.38244109,0.40916374 0 0 0 0.116916,-0.286651 0.34502838,0.36913685 0 0 0 -0.349121,-0.380464 0.32507493,0.34778918 0 0 0 -0.224086,0.08512 1.3759565,1.4721 0 0 1 -0.9060892,0.35614 c -0.5653444,0 -1.006999,-0.371779 -1.1009465,-1.038892 h 2.3983747 c 0.224476,0 0.41245,-0.184931 0.41245,-0.448218 0,-0.946409 -0.600686,-2.016979 -1.8186736,-2.016979 z m -0.00815,0.767877 c 0.5803114,0 0.9144676,0.472264 0.9726656,1.077113 H 8.2525929 C 8.3324059,12.32862 8.7084984,11.887488 9.244744,11.887488 Z"
       style="fill:#17387f;fill-opacity:1;stroke-width:0.85995" />
    <ellipse
       style="fill:#ea2b8d;fill-opacity:1;stroke-width:0.88281"
       id="path1668"
       cx="11.177301"
       cy="8.8050842"
       rx="0.67008924"
       ry="0.64430285" />
    <ellipse
       style="fill:#ff8100;fill-opacity:1;stroke-width:0.88281"
       id="path1668-6"
       cx="15.00478"
       cy="8.8097401"
       rx="0.67008924"
       ry="0.64430285" />
    <ellipse
       style="fill:#017da1;fill-opacity:1;stroke-width:0.868927"
       id="path1668-6-7"
       cx="18.839928"
       cy="8.8393173"
       rx="0.62285578"
       ry="0.67153156" />
  </g>
</svg>
