<?xml version="1.0" encoding="UTF-8" standalone="no"?>
<svg
   height="296"
   width="1013"
   viewBox="-153.6 -69.1855 1123.7536 153.59181"
   version="1.1"
   id="svg8464"
   sodipodi:docname="Netflix-Logo.wine.svg"
   inkscape:version="1.2.1 (9c6d41e410, 2022-07-14, custom)"
   xmlns:inkscape="http://www.inkscape.org/namespaces/inkscape"
   xmlns:sodipodi="http://sodipodi.sourceforge.net/DTD/sodipodi-0.dtd"
   xmlns="http://www.w3.org/2000/svg"
   xmlns:svg="http://www.w3.org/2000/svg">
  <defs
     id="defs8468" />
  <sodipodi:namedview
     id="namedview8466"
     pagecolor="#ffffff"
     bordercolor="#000000"
     borderopacity="0.25"
     inkscape:showpageshadow="2"
     inkscape:pageopacity="0.0"
     inkscape:pagecheckerboard="0"
     inkscape:deskcolor="#d1d1d1"
     showgrid="false"
     inkscape:zoom="0.44826252"
     inkscape:cx="677.05861"
     inkscape:cy="426.0896"
     inkscape:window-width="1920"
     inkscape:window-height="919"
     inkscape:window-x="0"
     inkscape:window-y="0"
     inkscape:window-maximized="1"
     inkscape:current-layer="svg8464" />
  <path
     fill="#d81f26"
     d="M 0.28468965,149.86145 C -16.568446,153.05423 -33.718075,154.01148 -51.458505,156.56098 L -105.56928,-14.416358 V 163.89907 c -16.85314,1.91331 -32.22818,4.46517 -48.19511,7.01704 v -326.64585 h 44.94461 L -47.319619,29.60627 V -155.72974 H 0.28468965 Z M 93.42441,-36.108394 c 18.33342,0 46.4227,-0.957244 63.27584,-0.957244 v 51.037307 c -20.99421,0 -45.53432,0 -63.27584,0.957244 v 75.920946 c 27.79498,-1.913309 55.58887,-4.46753 83.67706,-5.424774 V 134.54672 L 46.114408,145.71378 V -155.72974 H 177.10147 v 51.03849 H 93.42441 Z m 259.60655,-68.581676 h -49.0824 v 234.77633 c -15.96694,0 -31.93387,0 -47.30672,0.6362 v -235.41253 h -49.08241 v -51.03967 h 145.47372 z m 76.87629,65.073747 h 64.75503 V 11.420983 H 429.90725 V 127.21571 H 383.48236 V -155.72974 H 515.6554 v 51.03849 H 429.90725 Z M 592.53169,82.555706 c 26.90769,0.636195 54.10859,2.87292 80.42547,4.46518 v 50.401104 c -42.28163,-2.87291 -84.56436,-5.73992 -127.73328,-6.69953 v -286.4522 h 47.30781 z M 712.8734,140.9311 c 15.07964,0.95843 31.04658,1.91567 46.42162,3.82662 V -155.72974 H 712.8734 Z M 966.56867,-155.72974 906.54442,-0.38109867 966.56867,170.91611 c -17.74262,-2.55187 -35.48305,-6.06098 -53.22458,-9.2514 L 879.34242,67.245694 844.75105,154.01148 c -17.15292,-3.19279 -33.71065,-4.15003 -50.857,-6.70189 L 854.80341,-2.2967682 799.80534,-155.72974 h 50.85481 l 31.04657,85.80854 33.11766,-85.80854 z"
     id="path8462"
     style="stroke-width:1.13638" />
</svg>
