<?xml version="1.0" encoding="UTF-8" standalone="no"?>
<svg
   height="296"
   width="659"
   viewBox="-153.6 -69.1855 731.05177 153.59181"
   version="1.1"
   id="svg8464"
   sodipodi:docname="Netlify-logo.svg"
   inkscape:version="1.2.2 (b0a8486541, 2022-12-01)"
   xml:space="preserve"
   xmlns:inkscape="http://www.inkscape.org/namespaces/inkscape"
   xmlns:sodipodi="http://sodipodi.sourceforge.net/DTD/sodipodi-0.dtd"
   xmlns="http://www.w3.org/2000/svg"
   xmlns:svg="http://www.w3.org/2000/svg"><defs
     id="defs8468" /><sodipodi:namedview
     id="namedview8466"
     pagecolor="#ffffff"
     bordercolor="#000000"
     borderopacity="0.25"
     inkscape:showpageshadow="2"
     inkscape:pageopacity="0.0"
     inkscape:pagecheckerboard="0"
     inkscape:deskcolor="#d1d1d1"
     showgrid="false"
     inkscape:zoom="0.52320153"
     inkscape:cx="548.54579"
     inkscape:cy="481.64997"
     inkscape:window-width="1920"
     inkscape:window-height="936"
     inkscape:window-x="0"
     inkscape:window-y="32"
     inkscape:window-maximized="1"
     inkscape:current-layer="svg8464" /><g
     id="g268"
     transform="matrix(1.9595628,0,0,2.0311952,-152.39509,-152.23273)"><g
       transform="matrix(0.1,0,0,-0.1,-11.689943,193.7958)"
       fill="#000000"
       stroke="none"
       id="g18"
       style="fill:#004342;fill-opacity:1"><path
         d="m 2057,1484 c -4,-4 -7,-126 -7,-271 V 950 h 55 55 l -2,268 -3,267 -45,3 c -25,2 -49,0 -53,-4 z"
         id="path2"
         style="fill:#004342;fill-opacity:1" /><path
         d="m 2260,1446 v -46 h 56 55 l -3,43 -3,42 -52,3 -53,3 z"
         id="path4"
         style="fill:#004342;fill-opacity:1" /><path
         d="m 2584,1476 c -39,-17 -64,-52 -64,-87 0,-45 -10,-59 -41,-59 -28,0 -29,-2 -29,-44 0,-43 1,-45 33,-48 l 32,-3 3,-142 3,-143 h 49 50 v 145 145 h 45 45 v 44 45 l -42,3 c -40,3 -43,5 -43,33 0,29 2,30 48,33 l 47,3 v 45 44 h -52 c -29,-1 -67,-7 -84,-14 z"
         id="path6"
         style="fill:#004342;fill-opacity:1" /><path
         d="m 1758,1378 c -3,-40 -5,-43 -35,-46 -32,-3 -33,-5 -33,-48 0,-44 0,-44 35,-44 h 35 v -110 c 0,-107 1,-111 29,-142 26,-30 35,-33 100,-36 l 71,-4 v 45 46 l -47,3 -48,3 -3,98 -3,97 h 51 50 v 44 45 l -47,3 -48,3 -3,43 -3,42 h -49 -49 z"
         id="path8"
         style="fill:#004342;fill-opacity:1" /><path
         d="m 1385,1326 c -87,-39 -129,-162 -91,-269 18,-50 42,-76 91,-98 52,-24 119,-24 170,1 37,18 75,63 75,89 0,16 -92,13 -114,-4 -30,-23 -74,-18 -101,10 -14,13 -25,29 -25,34 0,6 50,11 128,13 l 127,3 -2,53 c -3,75 -36,131 -93,160 -50,25 -119,28 -165,8 z m 127,-93 c 10,-9 18,-24 18,-35 0,-16 -9,-18 -70,-18 -38,0 -70,4 -70,9 0,4 9,20 21,35 24,31 72,35 101,9 z"
         id="path10"
         style="fill:#004342;fill-opacity:1" /><path
         d="M 850,1140 V 950 h 50 50 v 145 145 h 59 c 88,0 91,-5 91,-161 V 950 h 56 56 l -4,138 c -6,219 -28,242 -230,242 H 850 Z"
         id="path12"
         style="fill:#004342;fill-opacity:1" /><path
         d="M 2260,1139 V 949 l 53,3 52,3 3,188 2,187 h -55 -55 z"
         id="path14"
         style="fill:#004342;fill-opacity:1" /><path
         d="m 2770,1290 c 0,-27 20,-90 60,-188 34,-80 59,-156 58,-167 -2,-16 -13,-21 -48,-25 -45,-5 -45,-5 -48,-47 l -3,-43 h 51 c 62,0 111,19 133,53 36,55 157,377 157,418 v 40 l -41,-3 -42,-3 -44,-127 c -25,-71 -49,-128 -53,-128 -4,0 -28,57 -53,128 l -44,127 -42,3 -41,3 z"
         id="path16"
         style="fill:#004342;fill-opacity:1" /></g><rect
       style="fill:#05bdba;fill-opacity:1;stroke:#ffffff;stroke-width:0;stroke-miterlimit:0;stroke-dasharray:none"
       id="rect5281"
       width="10.628193"
       height="47.275318"
       x="82.303749"
       y="0.033528745" /><rect
       style="fill:#05bdba;fill-opacity:1;stroke:#ffffff;stroke-width:0;stroke-miterlimit:0;stroke-dasharray:none"
       id="rect5281-6"
       width="10.628193"
       height="47.275318"
       x="83.511818"
       y="111.74857" /><rect
       style="fill:#05bdba;fill-opacity:1;stroke:#ffffff;stroke-width:0;stroke-miterlimit:0;stroke-dasharray:none"
       id="rect6061"
       width="59.435894"
       height="11.560686"
       x="0.47205439"
       y="72.791588" /><path
       id="rect6061-7"
       style="fill:#05bdba;fill-opacity:1;stroke:#ffffff;stroke-width:0;stroke-miterlimit:0;stroke-dasharray:none"
       d="m 320.65088,74.412994 -8.37012,11.41113 -0.0308,-0.0688 v 0.21826 H 371.686 v -11.56054 z" /><path
       id="rect6063"
       style="fill:#05bdba;fill-opacity:1;stroke:#ffffff;stroke-width:0;stroke-miterlimit:0;stroke-dasharray:none"
       d="m 37.847396,24.399364 -7.542429,6.487571 22.170936,21.392575 0.64998,-0.147855 6.930727,-0.26768 -0.068,-6.098868 z"
       inkscape:transform-center-x="-2.5233325"
       inkscape:transform-center-y="-0.43523501" /><path
       id="rect6063-3"
       style="fill:#05bdba;fill-opacity:1;stroke:#ffffff;stroke-width:0;stroke-miterlimit:0;stroke-dasharray:none"
       d="m 34.502941,126.69216 6.107164,7.85362 22.461398,-21.08739 -0.11557,-0.65649 0.07493,-6.93549 -6.094787,-0.23328 z"
       inkscape:transform-center-x="0.311032"
       inkscape:transform-center-y="-2.50845" /><circle
       id="path7182"
       style="fill:#3f8382;stroke:#ffffff;stroke-width:0.75"
       cx="-234.511"
       cy="75.298622"
       r="0" /></g></svg>
