<?xml version="1.0" encoding="UTF-8" standalone="no"?>
<!-- Generator: Adobe Illustrator 16.0.0, SVG Export Plug-In . SVG Version: 6.00 Build 0)  -->

<svg
   version="1.1"
   id="Layer_1"
   x="0px"
   y="0px"
   width="1160"
   height="296"
   viewBox="-161.599 -100.544 1160 296.00001"
   enable-background="new -161.599 -100.544 1000 622.214"
   xml:space="preserve"
   sodipodi:docname="Paramount+-Logo.svg"
   inkscape:version="1.2.1 (9c6d41e410, 2022-07-14, custom)"
   xmlns:inkscape="http://www.inkscape.org/namespaces/inkscape"
   xmlns:sodipodi="http://sodipodi.sourceforge.net/DTD/sodipodi-0.dtd"
   xmlns="http://www.w3.org/2000/svg"
   xmlns:svg="http://www.w3.org/2000/svg"><defs
   id="defs900" /><sodipodi:namedview
   id="namedview898"
   pagecolor="#ffffff"
   bordercolor="#000000"
   borderopacity="0.25"
   inkscape:showpageshadow="2"
   inkscape:pageopacity="0.0"
   inkscape:pagecheckerboard="0"
   inkscape:deskcolor="#d1d1d1"
   showgrid="false"
   inkscape:zoom="0.2399642"
   inkscape:cx="2.0836442"
   inkscape:cy="-150.02238"
   inkscape:window-width="1920"
   inkscape:window-height="919"
   inkscape:window-x="0"
   inkscape:window-y="0"
   inkscape:window-maximized="1"
   inkscape:current-layer="Layer_1" />
<path
   id="path895"
   d="m 472.29381,-457.77963 c -0.32841,0.33058 -0.65111,0.66778 -0.97945,0.9984 0.14406,0.15932 0.26432,0.34584 0.40623,0.50769 0.19121,-0.50227 0.37868,-1.00552 0.57322,-1.50609 z m -305.35897,146.21811 c 0.34601,1.27199 0.69647,2.54262 1.0449,3.81383 1.10206,-1.0079 2.17575,-2.05616 3.29718,-3.03649 -1.44692,-0.26185 -2.89601,-0.51029 -4.34208,-0.77734 z M 30.155545,-96.283861 c -61.699966,0 -118.311362,29.422017 -139.090245,75.045125 -5.7346,12.1551357 -8.71383,25.6024112 -8.69765,39.236362 -0.2623,11.789473 2.76778,23.390357 8.69765,33.304258 8.90292,14.150107 24.803836,23.045777 48.128222,23.045777 28.628008,0 51.31706,-16.885619 51.31706,-46.310179 0,0 0.4196642,-8.205812 -8.48326,-8.205812 -7.208998,0 -9.121296,5.470823 -8.907533,8.205812 1.065344,23.040416 -11.659412,41.519809 -34.348286,41.519809 -25.436591,0 -36.047645,-23.269576 -36.047645,-48.132069 0,-50.871724 35.621473,-84.636007 72.727189,-99.232619 17.3401897,-7.048306 35.7543,-10.535488 54.289249,-10.273055 41.981815,0 76.333544,17.340777 76.333544,63.880526 0,38.7738 -30.31975,71.85406 -66.581971,74.821641 l 1.48271,-5.247061 C 48.398495,16.856786 57.5166,-14.3901 72.355191,-37.431748 c 0.853895,-1.376829 2.333229,-3.653547 4.030619,-5.932093 l -2.119123,-2.740126 c -3.172929,2.072072 -6.219327,4.358031 -9.124186,6.843039 C -4.397353,19.140431 -6.5097048,183.38452 -99.176358,183.38452 c -3.191412,0 -6.376912,-0.23226 -9.539432,-0.68747 -19.29179,-3.4203 -29.47588,-17.3384 -29.47588,-36.71971 0,-3.87799 1.27508,-9.12874 1.27508,-12.09011 0.14676,-5.50979 -3.88357,-10.10289 -9.00231,-10.26334 -0.0404,-9.7e-4 -0.0793,0 -0.11736,0 h -1.05844 c -8.26741,0 -11.66034,7.06187 -11.87295,17.10639 -0.6332,28.97182 19.29137,45.84652 50.04199,49.04544 3.38898,0.22637 6.78289,0.45426 10.387968,0.45426 72.299128,0 116.614919,-58.85603 135.48842,-130.25829 9.559232,-1.206437 18.996408,-3.341789 28.196288,-6.381497 33.508733,-10.049483 71.237714,-34.218598 71.237714,-76.881598 0,-49.269776 -48.550266,-72.992456 -106.229185,-72.992456 z m 903.303505,70.633712 -23.35548,58.018895 h -58.74416 l -9.80122,24.330817 h 58.76446 l -23.35549,58.021327 h 27.63888 l 23.35774,-58.021327 h 58.7441 l 9.78322,-24.330817 h -58.74641 l 23.3532,-58.018895 z m -133.82969,19.4675644 -5.7187,14.3735455 -9.97047,24.1802111 h -11.86618 l -3.61988,8.2131 h 12.30851 l -14.85191,35.359365 c -10.58529,24.863743 -27.12973,49.273803 -36.67277,49.273803 -2.11685,0 -3.39647,-0.91722 -3.39647,-3.18954 0,-2.27231 0.63351,-4.34074 2.97218,-10.72488 2.97072,-7.53338 7.85269,-18.481305 11.45546,-26.463663 5.29206,-11.632773 13.77766,-29.654815 13.77766,-38.55133 0,-8.89776 -5.29447,-15.969523 -15.69142,-15.969523 -11.65988,0 -22.26115,7.53527 -32.02605,18.47402 l 6.36639,-16.421352 H 688.74444 L 669.23001,80.27489 c -7.83643,16.88138 -23.74807,44.94013 -33.71864,44.94013 -2.11684,0 -2.97219,-1.37012 -2.97219,-3.64866 0.20682,-2.04846 0.70843,-4.05148 1.48721,-5.93452 0.85275,-2.05217 12.51389,-31.477527 12.51389,-31.477527 l 21.2025,-52.239833 h -25.86275 l -20.57287,50.864919 c -6.35049,15.743337 -22.46748,42.433181 -32.86558,42.433181 -1.81063,0.19029 -3.42506,-1.23317 -3.60184,-3.1871 v -0.005 -0.91581 c 0,-2.73376 1.91278,-7.75587 3.39873,-11.40752 l 10.80774,-25.54553 22.26095,-52.239832 h -25.64162 l -5.10484,11.861759 c -3.80613,7.982361 -10.1755,17.334735 -20.34944,17.334735 -4.88188,0 -7.20369,-2.045754 -8.26211,-4.102912 -1.48477,-17.565438 -11.88307,-26.920338 -27.14688,-26.920338 -21.20409,0 -36.25852,13.458981 -46.23026,29.88639 -6.53189,11.321823 -11.66454,23.513313 -15.26038,36.265456 -9.12017,16.201042 -18.65619,28.749522 -26.29157,28.749522 -1.91,0 -3.18431,-1.14567 -3.18431,-3.87943 0,-2.73748 2.54608,-8.89426 3.39419,-11.18403 l 16.75214,-38.320537 c 4.66464,-11.856634 7.85136,-19.616103 7.85136,-27.374601 0,-8.213699 -5.29121,-14.147632 -13.99886,-14.147632 -12.08625,0 -25.23566,7.53343 -35.62336,19.846521 0.35242,-1.953929 0.49251,-3.947009 0.42202,-5.934519 0,-9.126608 -4.2375,-13.919291 -12.9359,-13.919291 -11.02207,0 -22.46995,7.080657 -32.85881,19.848959 l 6.78616,-17.80114 h -23.32841 l -19.71302,47.918054 c -9.32815,22.586446 -24.38319,44.947406 -32.86784,44.947406 -1.90536,0 -3.1798,-1.14809 -3.1798,-3.88185 0,-4.33198 4.45356,-15.05415 6.14747,-19.38984 l 26.08394,-63.642492 c 1.90768,-4.788416 -10.60659,-7.758847 -26.50819,-7.758847 -16.32569,0 -33.07621,8.672704 -45.37045,19.846521 -8.69262,7.752281 -15.05481,11.633421 -18.2416,11.633421 -1.03878,0.2388 -2.06422,-0.474241 -2.28838,-1.591127 -0.03,-0.151738 -0.0429,-0.304893 -0.0405,-0.459117 0,-3.87925 8.69313,-14.834106 8.69313,-23.271691 0,-3.876748 -1.90538,-6.391209 -6.7884,-6.391209 -9.32353,0 -20.35472,9.58488 -28.4107,19.618182 l 6.78618,-17.567938 h -22.89738 l -19.7153,47.908549 c -9.33159,22.586448 -24.81092,46.086708 -33.2921,46.086708 -1.90998,0 -3.1753,-1.13941 -3.1753,-3.88187 0,-4.33321 4.24118,-14.82202 6.57176,-20.3032 l 26.0794,-63.867998 c 1.90769,-4.788416 -10.60312,-7.758847 -26.50822,-7.758847 -23.53583,0 -46.43678,17.107651 -58.520718,34.674334 -13.356121,18.927329 -22.4703,39.006811 -22.685219,55.434241 -0.207985,13.22972 6.143761,21.44007 18.868989,21.44007 14.207708,0 25.660308,-12.08874 32.229168,-21.21658 -0.38939,1.80592 -0.67396,3.6346 -0.85307,5.47784 0,9.11914 3.39449,15.73631 13.7822,15.73631 9.11554,0 21.20183,-8.21079 30.95634,-21.21415 l -7.85362,19.39226 h 24.80433 l 24.38683,-59.54201 c 8.07561,-19.386286 17.19146,-29.419984 19.72659,-29.419984 0.5835,-0.120644 1.14829,0.290141 1.26153,0.918234 0.0115,0.07213 0.0181,0.146438 0.0181,0.221063 0,2.054671 -3.81397,7.536975 -3.81397,12.546791 0,5.011047 2.53648,8.893283 9.33181,8.893283 5.29207,0 11.233,-2.737092 16.53548,-6.391211 -12.50916,18.256949 -20.9994,37.415914 -20.9994,53.160504 -0.20913,13.23098 6.14596,21.44006 18.87349,21.44007 13.35498,0 25.864,-13.68719 32.64894,-22.81256 -0.25536,2.11935 -0.39544,4.25085 -0.42202,6.38635 0,8.9015 4.66689,16.4262 14.20647,16.42621 10.598,0 19.08203,-7.07456 29.68351,-20.98337 l -7.85137,19.16148 h 25.4385 L 364.7332,83.238393 c 10.17858,-24.637376 23.9581,-37.873589 30.7442,-37.873589 1.69508,-0.187806 3.21517,1.136561 3.39196,2.963627 0,0.0037 9.6e-4,0.0087 0.002,0.01244 v 0.680182 c -0.27961,2.771069 -0.99941,5.471209 -2.12138,7.982336 L 363.2795,140.2689 h 26.08167 l 23.74821,-57.94602 c 10.17164,-24.861251 21.41563,-36.957781 29.89564,-36.957781 2.54322,0 3.60636,1.378484 3.60636,4.336116 -0.22647,3.176532 -1.01748,6.275641 -2.33127,9.133773 L 421.376,111.29832 c -2.10875,5.04963 -3.39795,10.44742 -3.81623,15.96467 0,7.98611 4.02618,15.06831 15.48155,15.06831 14.85246,0 26.07928,-12.08923 38.79642,-30.10988 v 3.87458 c 1.06419,14.37146 8.48379,26.92033 28.2008,26.92033 23.32207,0 42.20236,-17.339 53.64154,-44.93526 4.32611,-9.70247 7.12699,-20.114567 8.28015,-30.807054 2.5536,1.39424 5.40691,2.025517 8.2621,1.836468 3.8535,0.04602 7.6503,-0.97475 11.0289,-2.968477 l -4.02835,9.349973 c -4.67851,10.495975 -9.76588,22.130708 -13.77768,31.94636 -2.54089,5.80331 -4.05394,12.06635 -4.45489,18.46916 0,9.80571 5.08723,16.88291 15.46801,16.88291 10.38077,0 24.60082,-10.4928 34.77706,-25.3195 h 0.22118 c -0.68173,3.06583 -1.04182,6.19955 -1.07648,9.34997 0,8.21495 2.33894,15.97196 12.9404,15.97196 12.30926,0 21.8356,-9.58276 31.173,-21.67571 l -7.85137,19.16392 h 25.6574 l 20.57512,-50.187172 c 11.66104,-28.286532 23.32002,-45.391945 34.12486,-45.391945 1.85684,-0.07089 3.44652,1.427823 3.62215,3.420306 v 0.675318 c 0,4.794649 -6.36775,17.798877 -12.08736,30.799761 -5.30938,11.862854 -9.33847,20.982672 -12.08735,28.062062 -2.55126,5.96254 -4.06088,12.37749 -4.45489,18.92829 0,8.66394 4.45364,15.28208 14.42539,15.28208 14.83511,0 29.89336,-15.5122 37.93432,-27.14868 -1.8141,5.57819 -2.81086,11.4245 -2.95413,17.3323 0,15.97592 8.89408,23.95915 21.40786,23.95915 8.31478,-0.0683 16.39719,-2.93849 23.11626,-8.20824 9.74872,-7.30329 17.60237,-18.25095 24.1747,-28.28798 l -4.45489,-4.56688 c -6.14597,9.35544 -12.93996,18.25339 -19.94098,23.72837 -3.68942,3.35686 -8.31932,5.28511 -13.14803,5.4754 -5.29091,0 -8.68862,-2.96759 -8.68862,-10.26091 0,-7.2921 3.17479,-17.11447 8.05899,-30.34794 0.20335,-0.22264 7.20419,-17.108325 13.77766,-33.299421 5.51392,-13.697382 11.02779,-26.920548 12.08735,-29.658038 h 16.74762 l 3.39647,-8.213112 H 809.38976 L 825.08344,-6.1824142 Z M 152.93374,39.444987 136.81578,78.21737 c -12.08625,29.20442 -25.23135,47.22599 -34.9847,47.22599 -3.602772,0 -6.147484,-1.36783 -6.147484,-6.38636 0.210289,-13.46106 10.598074,-37.411066 23.540534,-56.575962 9.11438,-13.230977 20.9867,-23.036051 33.70961,-23.036051 z m 158.39028,0 -16.11796,38.772383 c -12.2925,29.888 -24.80037,47.22353 -34.77256,47.22841 v -0.002 c -3.60162,0 -6.14597,-1.36783 -6.35511,-6.38636 0.21029,-13.46106 10.59819,-37.411058 23.53602,-56.575956 9.11206,-13.230977 20.98786,-23.036051 33.70961,-23.036051 z m 224.33133,0.22349 c 5.08869,0.0013 6.57354,4.567999 6.35284,10.273058 -0.63203,14.822974 -12.71922,50.631795 -26.92345,72.083945 -5.71843,8.66642 -10.60362,11.17187 -14.83611,11.17187 -5.94261,0 -7.64793,-5.24878 -6.79518,-13.00106 1.26409,-13.45734 11.6601,-44.938678 26.08619,-66.61096 6.57231,-9.809425 11.02932,-13.916853 16.11571,-13.916853 z"
   style="fill:#0064ff;fill-opacity:1;stroke-width:1.1988" />
</svg>
