<?xml version="1.0" encoding="UTF-8" standalone="no"?>
<svg
   id="Layer_1"
   data-name="Layer 1"
   viewBox="0 0 24 24"
   width="512"
   height="512"
   version="1.1"
   sodipodi:docname="thumbtack.svg"
   inkscape:version="1.2.1 (9c6d41e410, 2022-07-14, custom)"
   xmlns:inkscape="http://www.inkscape.org/namespaces/inkscape"
   xmlns:sodipodi="http://sodipodi.sourceforge.net/DTD/sodipodi-0.dtd"
   xmlns="http://www.w3.org/2000/svg"
   xmlns:svg="http://www.w3.org/2000/svg">
  <defs
     id="defs7" />
  <sodipodi:namedview
     id="namedview5"
     pagecolor="#ffffff"
     bordercolor="#000000"
     borderopacity="0.25"
     inkscape:showpageshadow="2"
     inkscape:pageopacity="0.0"
     inkscape:pagecheckerboard="0"
     inkscape:deskcolor="#d1d1d1"
     showgrid="false"
     inkscape:zoom="0.98579795"
     inkscape:cx="322.07411"
     inkscape:cy="244.472"
     inkscape:window-width="1920"
     inkscape:window-height="919"
     inkscape:window-x="0"
     inkscape:window-y="32"
     inkscape:window-maximized="1"
     inkscape:current-layer="Layer_1" />
  <path
     d="M 23.276519,6.7120504 17.35096,0.79638103 C 16.485587,-0.09783196 15.103084,-0.24418216 14.06928,0.44898601 12.812534,1.3416914 12.661367,3.1488462 13.752373,4.237483 l 0.589965,0.5882821 c 0.312911,0.3144659 0.312911,0.8222823 0,1.1367482 L 12.249557,8.0528558 C 11.875972,8.4243716 11.33463,8.5728689 10.823477,8.4440485 L 10.006296,8.2350143 C 9.0639215,7.9893098 8.0848938,7.9154625 7.1162649,8.0170214 5.816555,8.1520342 4.7134424,9.0282141 4.2890176,10.262647 3.82416,11.538559 4.1416939,12.967931 5.103209,13.927714 l 1.7399978,1.799685 -6.46868589,6.46314 c -0.97250963,0.938187 0.46985786,2.378874 1.40913909,1.407498 l 6.5867017,-6.386224 1.1037696,1.237013 c 0.8444757,0.894902 2.0092647,1.419538 3.2398237,1.459258 0.397825,4.63e-4 0.792814,-0.06686 1.167971,-0.19908 1.169643,-0.403163 1.992048,-1.456301 2.098761,-2.687583 0.100841,-0.958659 0.02861,-1.927614 -0.213265,-2.860783 l -0.211271,-1.021282 c -0.120455,-0.506467 0.0304,-1.03911 0.398625,-1.407497 l 2.081819,-2.0764072 c 0.161931,-0.1483766 0.371376,-0.2344561 0.590961,-0.2428779 0.194762,-3.951e-4 0.381504,0.077443 0.518212,0.2160021 l 0.504261,0.503673 c 0.861657,0.918871 2.263859,1.076646 3.308587,0.37228 1.257044,-0.8923755 1.40869,-2.6995672 0.317903,-3.788497 z"
     id="path2"
     sodipodi:nodetypes="cccccccccccccccccccccccccccccc"
     style="stroke-width:0.995982" />
  <path
     d="m 6.8370287,15.722592 -6.52915661,6.519864 c -0.98160088,0.94642 0.47425021,2.399751 1.42231201,1.419849 l 6.6482758,-6.442271"
     id="path315"
     sodipodi:nodetypes="cccc"
     style="fill:#cccccc;stroke-width:1.00501"
     inkscape:label="pin" />
  <path
     d="M 23.279645,6.7186233 17.354086,0.8029535 c -0.865373,-0.894213 -2.247876,-1.0405632 -3.28168,-0.347395 -1.256746,0.8927054 -1.407913,2.6998598 -0.316907,3.7884968 l 0.589965,0.588282 c 0.312911,0.314466 0.312911,0.822283 0,1.136749 l -2.092781,2.090342 c -0.373585,0.371516 -0.914927,0.520013 -1.42608,0.391193 L 10.009422,8.2415863 C 9.0670485,7.9958823 8.0880205,7.9220353 7.1193915,8.0235943 c -1.29971,0.135012 -2.402822,1.011192 -2.827247,2.2456257 -0.464858,1.275912 -0.147324,2.705284 0.814191,3.665067 l 1.739998,1.799685 1.527155,1.484414 1.10377,1.237013 c 0.8444745,0.894902 2.6045785,1.881158 4.4077935,1.260178 1.169643,-0.403163 1.992048,-1.456301 2.098761,-2.687583 0.100841,-0.958659 0.02861,-1.927614 -0.213265,-2.860783 l -0.211271,-1.021282 c -0.120455,-0.506467 0.0304,-1.03911 0.398625,-1.407497 l 2.081819,-2.0764077 c 0.161931,-0.148377 0.371376,-0.234456 0.590961,-0.242878 0.194762,-3.95e-4 0.381504,0.07744 0.518212,0.216002 l 0.504261,0.5036737 c 0.861657,0.918871 2.263859,1.076646 3.308587,0.37228 1.257044,-0.8923757 1.40869,-2.6995677 0.317903,-3.7884977 z"
     style="fill:#aa0000;stroke-width:0.995982"
     id="path431"
     sodipodi:nodetypes="ccccccccccccccccccccccccccc" />
  <g
     inkscape:groupmode="layer"
     id="layer2"
     inkscape:label="pin" />
  <g
     inkscape:groupmode="layer"
     id="layer1"
     inkscape:label="top" />
</svg>
