<?xml version="1.0" encoding="UTF-8" standalone="no"?>
<svg
   height="296"
   width="678"
   viewBox="-153.6 -69.1855 752.12914 153.59181"
   version="1.1"
   id="svg8464"
   sodipodi:docname="Tubi-Logo.svg"
   inkscape:version="1.2.2 (b0a8486541, 2022-12-01)"
   xml:space="preserve"
   xmlns:inkscape="http://www.inkscape.org/namespaces/inkscape"
   xmlns:sodipodi="http://sodipodi.sourceforge.net/DTD/sodipodi-0.dtd"
   xmlns="http://www.w3.org/2000/svg"
   xmlns:svg="http://www.w3.org/2000/svg"><defs
     id="defs8468" /><sodipodi:namedview
     id="namedview8466"
     pagecolor="#ffffff"
     bordercolor="#000000"
     borderopacity="0.25"
     inkscape:showpageshadow="2"
     inkscape:pageopacity="0.0"
     inkscape:pagecheckerboard="0"
     inkscape:deskcolor="#d1d1d1"
     showgrid="false"
     inkscape:zoom="0.38452311"
     inkscape:cx="-334.18017"
     inkscape:cy="452.50856"
     inkscape:window-width="1920"
     inkscape:window-height="919"
     inkscape:window-x="0"
     inkscape:window-y="32"
     inkscape:window-maximized="1"
     inkscape:current-layer="svg8464" /><g
     id="g1434"
     transform="matrix(15.597199,0,0,15.8094,-153.18479,-381.53599)"><path
       style="fill:#ff7043"
       d="m 47.54,20.08 h -3.23 v 14.43 c 0,0.26 0.2,0.47 0.46,0.47 h 2.77 c 0.25,0 0.46,-0.21 0.46,-0.47 V 20.54 c 0,-0.25 -0.21,-0.46 -0.46,-0.46 z M 40.01,22 c -1.31,-1.2 -3.03,-1.92 -4.93,-1.92 -0.78,0 -1.53,0.12 -2.23,0.35 -0.28,0.08 -0.55,0.19 -0.81,0.31 -0.06,0.02 -0.13,0.04 -0.19,0.04 -0.26,0 -0.47,-0.21 -0.47,-0.47 v -5.35 c 0,-0.26 -0.2,-0.47 -0.46,-0.47 h -3.23 v 13.04 c 0,0.36 0.03,0.71 0.08,1.05 0.37,2.67 2.15,4.89 4.56,5.86 0.85,0.35 1.78,0.54 2.75,0.54 1.26,0 2.44,-0.32 3.48,-0.88 2.26,-1.22 3.81,-3.59 3.89,-6.33 0.01,-0.08 0.01,-0.16 0.01,-0.24 0,-2.2 -0.95,-4.18 -2.45,-5.53 z m -4.93,9.25 c -0.63,0 -1.22,-0.16 -1.74,-0.44 -1.17,-0.62 -1.96,-1.86 -1.96,-3.28 0,-2.06 1.66,-3.73 3.7,-3.73 0.81,0 1.56,0.26 2.16,0.71 0.93,0.68 1.53,1.78 1.53,3.02 0,2.06 -1.65,3.72 -3.69,3.72 z m -24.23,2.34 c 0,0 0,-0.02 -0.01,-0.02 L 9.45,31.14 C 9.36,30.99 9.21,30.9 9.04,30.9 c -0.06,0 -0.12,0.02 -0.18,0.04 -0.45,0.2 -0.95,0.31 -1.48,0.31 -2.03,0 -3.69,-1.66 -3.69,-3.72 v -3.26 c 0,-0.26 0.21,-0.47 0.46,-0.47 h 4.62 c 0.25,0 0.46,-0.2 0.46,-0.46 v -2.8 c 0,-0.25 -0.21,-0.46 -0.46,-0.46 H 4.15 c -0.25,0 -0.46,-0.21 -0.46,-0.47 v -4.65 c 0,-0.26 -0.2,-0.47 -0.46,-0.47 H 0 v 13.04 c 0,4.11 3.31,7.45 7.38,7.45 1.17,0 2.28,-0.27 3.26,-0.76 0.23,-0.12 0.33,-0.4 0.21,-0.63 z M 25.38,20.08 h -3.23 v 7.45 c 0,1.99 -1.54,3.61 -3.48,3.72 -0.07,0.01 -0.14,0.01 -0.21,0.01 -2.04,0 -3.69,-1.67 -3.69,-3.73 v -6.99 c 0,-0.25 -0.21,-0.46 -0.46,-0.46 h -3.23 v 7.45 c 0,4 3.13,7.27 7.06,7.43 0.11,0.02 0.21,0.02 0.32,0.02 4.08,0 7.39,-3.34 7.39,-7.45 v -6.99 c 0,-0.25 -0.21,-0.46 -0.47,-0.46 z m 20.77,-5.59 c -1.02,0 -1.84,0.83 -1.84,1.86 0,1.03 0.82,1.87 1.84,1.87 1.02,0 1.85,-0.84 1.85,-1.87 0,-1.03 -0.83,-1.86 -1.85,-1.86 z"
       id="path1384" /><path
       style="fill:#dd2c00"
       d="m 42.45,27.77 c -0.08,2.74 -1.63,5.11 -3.89,6.33 0.71,-2.45 2.07,-4.63 3.89,-6.33 z"
       id="path1386" /><path
       style="fill:#dd2c00"
       d="m 48,24.58 v 9.93 c 0,0.26 -0.21,0.47 -0.46,0.47 h -2.77 c -0.26,0 -0.46,-0.21 -0.46,-0.47 v -8.2 c 1.12,-0.75 2.37,-1.33 3.69,-1.73 z"
       id="path1388" /><path
       style="fill:#dd2c00"
       d="m 40.01,22 c -1.31,-1.2 -3.03,-1.92 -4.93,-1.92 -0.78,0 -1.53,0.12 -2.23,0.35 -2.17,2.36 -3.9,5.12 -5.08,8.15 0.37,2.67 2.15,4.89 4.56,5.86 0.85,0.35 1.78,0.54 2.75,0.54 1.26,0 2.44,-0.32 3.48,-0.88 2.26,-1.22 3.81,-3.59 3.89,-6.33 0.01,-0.08 0.01,-0.16 0.01,-0.24 0,-2.2 -0.95,-4.18 -2.45,-5.53 z m -4.93,9.25 c -0.63,0 -1.22,-0.16 -1.74,-0.44 -1.17,-0.62 -1.96,-1.86 -1.96,-3.28 0,-2.06 1.66,-3.73 3.7,-3.73 0.81,0 1.56,0.26 2.16,0.71 0.93,0.68 1.53,1.78 1.53,3.02 0,2.06 -1.65,3.72 -3.69,3.72 z"
       id="path1390" /><path
       style="fill:#dd2c00"
       d="m 44.31,16.35 c 0,-1.03 0.82,-1.86 1.84,-1.86 1.02,0 1.85,0.83 1.85,1.86 0,1.03 -0.83,1.87 -1.85,1.87 -1.02,0 -1.84,-0.84 -1.84,-1.87 z"
       id="path1392" /><path
       style="fill:#dd2c00"
       d="m 48,20.54 v 13.97 c 0,0.26 -0.21,0.47 -0.46,0.47 h -2.77 c -0.26,0 -0.46,-0.21 -0.46,-0.47 V 20.08 h 3.23 c 0.25,0 0.46,0.21 0.46,0.46 z"
       id="path1394" /><path
       style="fill:#f4511e"
       d="m 25.85,20.54 v 6.99 c 0,4.11 -3.31,7.45 -7.39,7.45 -0.11,0 -0.21,0 -0.32,-0.02 0.11,-1.26 0.29,-2.5 0.53,-3.71 1.94,-0.11 3.48,-1.73 3.48,-3.72 v -5.8 c 0.3,-0.56 0.63,-1.11 0.96,-1.65 h 2.27 c 0.26,0 0.47,0.21 0.47,0.46 z"
       id="path1396" /><path
       style="fill:#f4511e"
       d="m 40.01,22 c -1.31,-1.2 -3.03,-1.92 -4.93,-1.92 -0.78,0 -1.53,0.12 -2.23,0.35 -0.28,0.08 -0.55,0.19 -0.81,0.31 -0.06,0.02 -0.13,0.04 -0.19,0.04 -0.26,0 -0.47,-0.21 -0.47,-0.47 v -5.35 c 0,-0.26 -0.2,-0.47 -0.46,-0.47 h -3.23 v 13.04 c 0,0.36 0.03,0.71 0.08,1.05 0.37,2.67 2.15,4.89 4.56,5.86 0.85,0.35 1.78,0.54 2.75,0.54 1.26,0 2.44,-0.32 3.48,-0.88 2.26,-1.22 3.81,-3.59 3.89,-6.33 0.01,-0.08 0.01,-0.16 0.01,-0.24 0,-2.2 -0.95,-4.18 -2.45,-5.53 z m -4.93,9.25 c -0.63,0 -1.22,-0.16 -1.74,-0.44 -1.17,-0.62 -1.96,-1.86 -1.96,-3.28 0,-2.06 1.66,-3.73 3.7,-3.73 0.81,0 1.56,0.26 2.16,0.71 0.93,0.68 1.53,1.78 1.53,3.02 0,2.06 -1.65,3.72 -3.69,3.72 z"
       id="path1398" /><path
       style="fill:#f4511e"
       d="m 44.31,16.35 c 0,-1.03 0.82,-1.86 1.84,-1.86 1.02,0 1.85,0.83 1.85,1.86 0,1.03 -0.83,1.87 -1.85,1.87 -1.02,0 -1.84,-0.84 -1.84,-1.87 z"
       id="path1400" /><path
       style="fill:#dd2c00"
       d="m 48,20.54 v 13.97 c 0,0.26 -0.21,0.47 -0.46,0.47 h -2.77 c -0.26,0 -0.46,-0.21 -0.46,-0.47 V 20.08 h 3.23 c 0.25,0 0.46,0.21 0.46,0.46 z"
       id="path1402" /><path
       style="fill:#e53935"
       d="m 42.46,27.53 c 0,0.08 0,0.16 -0.01,0.24 -0.08,2.74 -1.63,5.11 -3.89,6.33 -1.04,0.56 -2.22,0.88 -3.48,0.88 -0.97,0 -1.9,-0.19 -2.75,-0.54 0.21,-1.26 0.56,-2.47 1.01,-3.63 0.52,0.28 1.11,0.44 1.74,0.44 2.04,0 3.69,-1.66 3.69,-3.72 0,-1.24 -0.6,-2.34 -1.53,-3.02 0.84,-0.91 1.77,-1.76 2.77,-2.51 1.5,1.35 2.45,3.33 2.45,5.53 z"
       id="path1404" /><path
       style="fill:#e53935"
       d="m 48,20.54 v 13.97 c 0,0.26 -0.21,0.47 -0.46,0.47 h -2.77 c -0.26,0 -0.46,-0.21 -0.46,-0.47 V 20.08 h 3.23 c 0.25,0 0.46,0.21 0.46,0.46 z"
       id="path1406" /><path
       style="fill:#c2185b"
       d="m 42.45,27.77 c -0.08,2.74 -1.63,5.11 -3.89,6.33 0.71,-2.45 2.07,-4.63 3.89,-6.33 z"
       id="path1408" /><path
       style="fill:#c2185b"
       d="m 48,24.58 v 9.93 c 0,0.26 -0.21,0.47 -0.46,0.47 h -2.77 c -0.26,0 -0.46,-0.21 -0.46,-0.47 v -8.2 c 1.12,-0.75 2.37,-1.33 3.69,-1.73 z"
       id="path1410" /><path
       style="fill:#8e24aa"
       d="m 48,28.84 v 5.67 c 0,0.26 -0.21,0.47 -0.46,0.47 h -2.77 c -0.26,0 -0.46,-0.21 -0.46,-0.47 v -2.9 C 45.3,30.42 46.56,29.46 48,28.84 Z"
       id="path1412" /></g></svg>
