<?xml version="1.0" encoding="UTF-8" standalone="no"?>
<svg
   height="296"
   width="913"
   viewBox="-39.687495 -22.00025 261.69491 48.840555"
   version="1.1"
   id="svg409"
   sodipodi:docname="Twitch_(service)-Logo.wine.svg"
   inkscape:version="1.2.1 (9c6d41e410, 2022-07-14, custom)"
   xmlns:inkscape="http://www.inkscape.org/namespaces/inkscape"
   xmlns:sodipodi="http://sodipodi.sourceforge.net/DTD/sodipodi-0.dtd"
   xmlns="http://www.w3.org/2000/svg"
   xmlns:svg="http://www.w3.org/2000/svg">
  <defs
     id="defs413" />
  <sodipodi:namedview
     id="namedview411"
     pagecolor="#ffffff"
     bordercolor="#000000"
     borderopacity="0.25"
     inkscape:showpageshadow="2"
     inkscape:pageopacity="0.0"
     inkscape:pagecheckerboard="0"
     inkscape:deskcolor="#d1d1d1"
     showgrid="false"
     inkscape:zoom="0.47766636"
     inkscape:cx="294.13836"
     inkscape:cy="408.23473"
     inkscape:window-width="1920"
     inkscape:window-height="919"
     inkscape:window-x="0"
     inkscape:window-y="0"
     inkscape:window-maximized="1"
     inkscape:current-layer="svg409" />
  <g
     stroke-linecap="square"
     stroke-linejoin="bevel"
     id="g407"
     transform="matrix(0.98833236,0,0,0.96838279,-39.803675,-40.176373)">
    <path
       d="M 259.9255,62.534 H 241.3502 V 39.373 h -4.6439 V 62.534 H 218.1309 V 4.6438 h 18.5754 v 16.2024 h 13.9316 l 9.2876,9.2645 V 62.5341 M 213.5103,39.3729 h -18.5754 v 4.6438 h 18.5754 v 18.529 H 185.661 l -9.2877,-9.2645 V 30.1107 l 9.2877,-9.2645 h 27.8492 V 39.373 m -41.7738,0 H 155.483 v 4.6438 h 16.2534 v 18.529 h -25.5272 l -9.2877,-9.2645 V 4.6438 h 18.5754 v 16.2024 h 16.2535 l -0.014,18.5267 M 132.2847,16.214 H 113.7093 V 4.6438 h 18.5754 V 16.214 m 0,46.32 H 113.7093 V 20.8463 h 18.5754 v 41.6879 m -23.2192,0 H 53.3787 L 44.091,53.2697 V 20.8462 h 18.5754 v 23.159 h 4.6439 v -23.159 h 18.5754 v 23.159 h 4.6438 v -23.159 h 18.5754 l -0.0394,41.6879 M 39.454,39.3729 H 23.2192 v 4.6438 h 16.2535 v 18.529 H 13.9315 L 4.6438,53.2812 V 4.6438 H 23.2192 V 20.8462 H 39.4727 L 39.4541,39.3729 M 252.9644,16.214 H 241.3548 V 0 H 215.881 l -11.7188,16.214 h -20.8207 l -6.9658,6.9472 V 16.214 H 160.1223 V 0 H 109.077 V 16.214 H 37.2483 L 25.5412,0 H 0 v 55.5869 l 32.4907,32.414 h 32.4907 v -9.2644 l 9.2877,9.2644 h 62.6571 v -9.2644 l 9.2877,9.2644 h 30.1642 v -9.2644 l 9.2877,9.2644 H 243.686 L 264.5833,67.1547 V 27.7934 L 252.9644,16.214"
       fill="#9147fe"
       id="path403" />
    <path
       d="m 218.1518,62.534 h 18.5661 V 39.373 h 4.6415 v 23.161 h 18.5661 V 30.1107 l -9.283,-9.2645 H 236.7179 V 4.6346 H 218.1518 V 62.534 m -81.2256,-9.2645 9.2808,9.2645 h 25.5295 V 44.005 h -16.2442 v -4.632 h 16.2442 V 20.8462 H 155.4923 V 4.6346 h -18.566 v 48.635 m 39.4518,0 9.283,9.2645 h 27.8492 V 44.005 h -18.5661 v -4.632 h 18.566 V 20.8462 h -27.849 l -9.2831,9.2645 V 53.2696 M 113.7186,4.6346 h 18.5661 V 16.214 H 113.7186 V 4.6346 M 39.454,20.8462 H 23.2076 V 4.6346 H 4.6416 v 48.635 l 9.283,9.2645 H 39.454 V 44.005 H 23.2076 V 39.373 H 39.4541 V 20.8462 m 4.6416,32.4234 9.2807,9.2645 h 55.7007 V 20.8462 H 90.511 v 23.159 H 85.867 V 20.8462 H 67.3033 v 23.159 H 62.6618 V 20.8462 H 44.0957 v 32.4234 m 69.6229,-32.4234 h 18.5661 V 62.5341 H 113.7186 V 20.8462"
       fill="#ffffff"
       id="path405" />
  </g>
</svg>
