<?xml version="1.0" encoding="UTF-8" standalone="no"?>
<svg
   height="296"
   width="1915"
   viewBox="-18.75 -10 259.32314 22.2"
   version="1.1"
   id="svg278"
   sodipodi:docname="YouTubeMusic-Logo.svg"
   inkscape:version="1.2.1 (9c6d41e410, 2022-07-14, custom)"
   xmlns:inkscape="http://www.inkscape.org/namespaces/inkscape"
   xmlns:sodipodi="http://sodipodi.sourceforge.net/DTD/sodipodi-0.dtd"
   xmlns="http://www.w3.org/2000/svg"
   xmlns:svg="http://www.w3.org/2000/svg">
  <defs
     id="defs282" />
  <sodipodi:namedview
     id="namedview280"
     pagecolor="#ffffff"
     bordercolor="#000000"
     borderopacity="0.25"
     inkscape:showpageshadow="2"
     inkscape:pageopacity="0.0"
     inkscape:pagecheckerboard="true"
     inkscape:deskcolor="#d1d1d1"
     showgrid="false"
     inkscape:zoom="0.3941906"
     inkscape:cx="711.58469"
     inkscape:cy="514.9793"
     inkscape:window-width="1920"
     inkscape:window-height="919"
     inkscape:window-x="0"
     inkscape:window-y="0"
     inkscape:window-maximized="1"
     inkscape:current-layer="layer1" />
  <g
     id="g7433"
     transform="matrix(0.41721789,0,0,0.46968627,-8.8921313,-14.220882)"
     style="display:none">
    <path
       id="path7429"
       d="M 118.9,13.3 C 117.5,8.1 113.4,4 108.2,2.6 98.7,0 60.7,0 60.7,0 60.7,0 22.7,0 13.2,2.5 8.1,3.9 3.9,8.1 2.5,13.3 0,22.8 0,42.5 0,42.5 0,42.5 0,62.3 2.5,71.7 3.9,76.9 8,81 13.2,82.4 22.8,85 60.7,85 60.7,85 c 0,0 38,0 47.5,-2.5 5.2,-1.4 9.3,-5.5 10.7,-10.7 2.5,-9.5 2.5,-29.2 2.5,-29.2 0,0 0.1,-19.8 -2.5,-29.3 z"
       fill="#ff0000" />
    <path
       id="polygon7431"
       fill="#ffffff"
       d="M 48.6,24.3 V 60.7 L 80.2,42.5 Z" />
    <g
       id="g7449"
       style="fill:#ffffff"
       transform="translate(1.1892336e-6)">
      <path
         id="path7435"
         d="m 176.3,77.4 c -2.4,-1.6 -4.1,-4.1 -5.1,-7.6 -1,-3.4 -1.5,-8 -1.5,-13.6 v -7.7 c 0,-5.7 0.6,-10.3 1.7,-13.8 1.2,-3.5 3,-6 5.4,-7.6 2.5,-1.6 5.7,-2.4 9.7,-2.4 3.9,0 7.1,0.8 9.5,2.4 2.4,1.6 4.1,4.2 5.2,7.6 1.1,3.4 1.7,8 1.7,13.8 v 7.7 c 0,5.7 -0.5,10.2 -1.6,13.7 -1.1,3.4 -2.8,6 -5.2,7.6 -2.4,1.6 -5.7,2.4 -9.8,2.4 -4.2,-0.1 -7.6,-0.9 -10,-2.5 z M 189.8,69 c 0.7,-1.7 1,-4.6 1,-8.5 V 43.9 c 0,-3.8 -0.3,-6.6 -1,-8.4 -0.7,-1.8 -1.8,-2.6 -3.5,-2.6 -1.6,0 -2.8,0.9 -3.4,2.6 -0.7,1.8 -1,4.6 -1,8.4 v 16.6 c 0,3.9 0.3,6.8 1,8.5 0.6,1.7 1.8,2.6 3.5,2.6 1.6,0 2.7,-0.8 3.4,-2.6 z"
         class="st2"
         style="fill:#ffffff" />
      <path
         id="path7437"
         d="M 360.9,56.3 V 59 c 0,3.4 0.1,6 0.3,7.7 0.2,1.7 0.6,3 1.3,3.7 0.6,0.8 1.6,1.2 3,1.2 1.8,0 3,-0.7 3.7,-2.1 0.7,-1.4 1,-3.7 1.1,-7 l 10.3,0.6 c 0.1,0.5 0.1,1.1 0.1,1.9 0,4.9 -1.3,8.6 -4,11 -2.7,2.4 -6.5,3.6 -11.4,3.6 -5.9,0 -10,-1.9 -12.4,-5.6 -2.4,-3.7 -3.6,-9.4 -3.6,-17.2 v -9.3 c 0,-8 1.2,-13.8 3.7,-17.5 2.5,-3.7 6.7,-5.5 12.6,-5.5 4.1,0 7.3,0.8 9.5,2.3 2.2,1.5 3.7,3.9 4.6,7 0.9,3.2 1.3,7.6 1.3,13.2 v 9.1 h -20.1 z m 1.5,-22.4 c -0.6,0.8 -1,2 -1.2,3.7 -0.2,1.7 -0.3,4.3 -0.3,7.8 v 3.8 h 8.8 v -3.8 c 0,-3.4 -0.1,-6 -0.3,-7.8 -0.2,-1.8 -0.7,-3 -1.3,-3.7 -0.6,-0.7 -1.6,-1.1 -2.8,-1.1 -1.4,-0.1 -2.3,0.3 -2.9,1.1 z"
         class="st2"
         style="fill:#ffffff" />
      <path
         id="path7439"
         d="M 147.1,55.3 133.5,6 h 11.9 l 4.8,22.3 c 1.2,5.5 2.1,10.2 2.7,14.1 h 0.3 c 0.4,-2.8 1.3,-7.4 2.7,-14 l 5,-22.4 h 11.9 L 159,55.3 V 78.9 H 147.2 V 55.3 Z"
         class="st2"
         style="fill:#ffffff" />
      <path
         id="path7441"
         d="M 241.6,25.7 V 79 h -9.4 l -1,-6.5 h -0.3 c -2.5,4.9 -6.4,7.4 -11.5,7.4 -3.5,0 -6.1,-1.2 -7.8,-3.5 -1.7,-2.3 -2.5,-5.9 -2.5,-10.9 V 25.7 h 12 v 39.1 c 0,2.4 0.3,4.1 0.8,5.1 0.5,1 1.4,1.5 2.6,1.5 1,0 2,-0.3 3,-1 1,-0.6 1.7,-1.4 2.1,-2.4 V 25.7 Z"
         class="st2"
         style="fill:#ffffff" />
      <path
         id="path7443"
         d="M 303.1,25.7 V 79 h -9.4 l -1,-6.5 h -0.3 c -2.5,4.9 -6.4,7.4 -11.5,7.4 -3.5,0 -6.1,-1.2 -7.8,-3.5 -1.7,-2.3 -2.5,-5.9 -2.5,-10.9 V 25.7 h 12 v 39.1 c 0,2.4 0.3,4.1 0.8,5.1 0.5,1 1.4,1.5 2.6,1.5 1,0 2,-0.3 3,-1 1,-0.6 1.7,-1.4 2.1,-2.4 V 25.7 Z"
         class="st2"
         style="fill:#ffffff" />
      <path
         id="path7445"
         d="M 274.2,15.7 H 262.3 V 78.9 H 250.6 V 15.7 H 238.7 V 6 h 35.5 z"
         class="st2"
         style="fill:#ffffff" />
      <path
         id="path7447"
         d="m 342.8,34.2 c -0.7,-3.4 -1.9,-5.8 -3.5,-7.3 -1.6,-1.5 -3.9,-2.3 -6.7,-2.3 -2.2,0 -4.3,0.6 -6.2,1.9 -1.9,1.2 -3.4,2.9 -4.4,4.9 h -0.1 V 3.3 h -11.6 v 75.6 h 9.9 l 1.2,-5 h 0.3 c 0.9,1.8 2.3,3.2 4.2,4.3 1.9,1 3.9,1.6 6.2,1.6 4.1,0 7,-1.9 8.9,-5.6 1.9,-3.7 2.9,-9.6 2.9,-17.5 v -8.4 c -0.1,-6.1 -0.4,-10.8 -1.1,-14.1 z m -11,21.7 c 0,3.9 -0.2,6.9 -0.5,9.1 -0.3,2.2 -0.9,3.8 -1.6,4.7 -0.8,0.9 -1.8,1.4 -3,1.4 -1,0 -1.9,-0.2 -2.7,-0.7 -0.8,-0.5 -1.5,-1.2 -2,-2.1 V 38.1 c 0.4,-1.4 1.1,-2.6 2.1,-3.6 1,-0.9 2.1,-1.4 3.2,-1.4 1.2,0 2.2,0.5 2.8,1.4 0.7,1 1.1,2.6 1.4,4.8 0.3,2.3 0.4,5.5 0.4,9.6 v 7 z"
         class="st2"
         style="fill:#ffffff" />
    </g>
    <g
       id="g7451"
       transform="translate(1.1892336e-6)"
       style="fill:#ffffff" />
  </g>
  <g
     inkscape:groupmode="layer"
     id="layer1"
     inkscape:label="YoutubeMusic"
     transform="matrix(1.0668662,0,0,1.1115917,-1.8609261,-2.4530707)">
    <path
       d="M 33.102805,-8.7537676 C 32.536972,-10.934127 30.860428,-12.652993 28.730453,-13.241592 24.876305,-14.299506 9.41399,-14.299506 9.41399,-14.299506 c 0,0 -15.454696,0 -19.3164646,1.057914 -2.1242584,0.580778 -3.7988984,2.301599 -4.3723524,4.4878244 -1.030694,3.9559341 -1.030694,12.2139224 -1.030694,12.2139224 0,0 0,8.2579872 1.030694,12.2139232 0.565834,2.180358 2.242378,3.899225 4.3723524,4.487823 3.8617686,1.057916 19.3164646,1.057916 19.3164646,1.057916 0,0 15.462315,0 19.316463,-1.057916 2.124257,-0.580777 3.798897,-2.301599 4.372352,-4.487824 1.030694,-3.955935 1.030694,-12.2139222 1.030694,-12.2139222 0,0 0,-8.2579883 -1.030694,-12.2139224 z"
       fill="#ff0000"
       id="path268"
       style="stroke-width:1.93016" />
    <path
       fill="#ffffff"
       d="M 4.4738966,-4.1525242 V 11.072835 L 17.318516,3.4601559 Z"
       id="path270"
       style="stroke-width:1.93016" />
    <path
       d="m 56.454408,17.858347 c -0.975445,-0.678551 -1.67464,-1.726687 -2.084251,-3.156142 -0.40961,-1.429457 -0.621083,-3.32627 -0.621083,-5.7002234 V 5.7734867 c 0,-2.3974174 0.236241,-4.3196534 0.708721,-5.77257422223 C 54.930276,-1.4520085 55.66948,-2.5099227 56.667786,-3.1708746 57.666092,-3.8337819 58.980655,-4.17208 60.607667,-4.17208 c 1.604148,0 2.886324,0.3382981 3.854148,1.0168493 0.967824,0.6785512 1.674639,1.7364653 2.124259,3.17178689 0.447714,1.43727711 0.668712,3.35755771 0.668712,5.74715301 V 8.992205 c 0,2.373952 -0.220998,4.27859 -0.653471,5.715865 -0.432473,1.437278 -1.141194,2.495193 -2.12426,3.156145 -0.975443,0.662907 -2.305248,1.001204 -3.979888,1.001204 -1.714648,0.0098 -3.067316,-0.328521 -4.042759,-1.007072 z m 5.481159,-3.486619 c 0.266723,-0.727438 0.409611,-1.912458 0.409611,-3.55115 V 3.8864494 c 0,-1.5976264 -0.133363,-2.7611365 -0.409611,-3.50421855 -0.266725,-0.73526001 -0.746825,-1.10680119 -1.43078,-1.10680119 -0.661091,0 -1.124046,0.37154118 -1.400295,1.10680119 C 58.837768,1.117491 58.694881,2.2868675 58.694881,3.8864494 v 6.9341286 c 0,1.646514 0.125742,2.833489 0.384844,3.55115 0.259102,0.727439 0.731583,1.089202 1.415537,1.089202 0.69348,0 1.165961,-0.363719 1.440305,-1.089202 z M 131.54076,9.0586903 v 1.1224467 c 0,1.429455 0.04,2.495191 0.12573,3.212852 0.0781,0.70984 0.25148,1.235861 0.51058,1.558516 0.25911,0.322654 0.66109,0.492783 1.20407,0.492783 0.73159,0 1.23455,-0.291368 1.50127,-0.872146 0.26672,-0.580776 0.41724,-1.550695 0.4401,-2.905842 l 4.2085,0.250302 c 0.0228,0.193592 0.0324,0.459538 0.0324,0.799791 0,2.059119 -0.55061,3.592214 -1.64416,4.609064 -1.09356,1.01685 -2.64245,1.525275 -4.64861,1.525275 -2.40622,0 -4.09039,-0.77437 -5.05631,-2.325066 -0.96782,-1.550695 -1.44792,-3.940291 -1.44792,-7.1844301 V 5.4586545 c 0,-3.3419138 0.50297,-5.77257415 1.50127,-7.3134917 0.9983,-1.5330955 2.71296,-2.3015988 5.14394,-2.3015988 1.67464,0 2.95682,0.3148321 3.85416,0.9444963 0.89733,0.6296643 1.52603,1.6074037 1.89564,2.93908515 0.36198,1.33168115 0.55059,3.17178695 0.55059,5.51445085 V 9.052825 h -8.17125 z m 0.62108,-9.36283263 c -0.24387,0.31483225 -0.40961,0.83107862 -0.49535,1.54091763 -0.0857,0.7098388 -0.12573,1.8009962 -0.12573,3.2460952 v 1.5976264 h 3.57027 V 4.4828705 c 0,-1.4294552 -0.0476,-2.5108352 -0.14098,-3.2460952 -0.0953,-0.73526016 -0.26672,-1.25932855 -0.51058,-1.5585169 -0.24385,-0.2991883 -0.62871,-0.45171567 -1.14882,-0.45171567 -0.52011,-0.00782 -0.90496,0.15448275 -1.14881,0.46931494 z M 44.577611,8.640219 39.024057,-11.937288 h 4.844834 l 1.943266,9.323725 c 0.495344,2.30159873 0.857325,4.2551224 1.093566,5.8762145 h 0.140982 C 47.212454,2.101097 47.574436,0.15539536 48.14027,-2.5822754 l 2.013758,-9.3647896 h 4.844834 L 49.382437,8.6382629 V 18.511477 H 44.577611 Z M 83.006687,-3.736008 v 22.239664 h -3.81414 l -0.424852,-2.720071 h -0.102874 c -1.038316,2.05912 -2.594834,3.08379 -4.663843,3.08379 -1.4384,0 -2.501482,-0.484959 -3.185435,-1.452922 -0.683954,-0.967962 -1.023074,-2.477592 -1.023074,-4.536711 v -16.61375 h 4.875316 v 16.330206 c 0,0.993384 0.102874,1.703222 0.314353,2.12365 0.211472,0.420428 0.565833,0.637487 1.061176,0.637487 0.424852,0 0.834462,-0.129062 1.219306,-0.395008 0.384843,-0.265945 0.676333,-0.606198 0.864944,-1.016849 V -3.736008 Z m 25.026243,0 v 22.239664 h -3.81415 l -0.42485,-2.720071 h -0.10288 c -1.03832,2.05912 -2.59484,3.08379 -4.66385,3.08379 -1.438394,0 -2.501485,-0.484959 -3.185437,-1.452922 -0.683953,-0.967962 -1.023068,-2.477592 -1.023068,-4.536711 v -16.61375 h 4.875323 v 16.330206 c 0,0.993384 0.102742,1.703222 0.314342,2.12365 0.21149,0.420428 0.56584,0.637487 1.06118,0.637487 0.42486,0 0.83446,-0.129062 1.21931,-0.395008 0.38483,-0.265945 0.67633,-0.606198 0.86493,-1.016849 V -3.736008 Z"
       id="path272"
       style="fill:#ffffff;stroke-width:1.93016" />
    <path
       d="M 96.266631,-7.5384363 H 91.421795 V 18.876174 H 86.647457 V -7.5384363 h -4.844834 v -4.0282877 h 14.45638 v 4.0282877 z M 124.1792,0.19548345 c -0.2991,-1.40403415 -0.77159,-2.42088315 -1.43078,-3.05054745 -0.66109,-0.6296642 -1.56604,-0.9444964 -2.72058,-0.9444964 -0.89733,0 -1.72988,0.2581232 -2.50909,0.7821916 -0.77922,0.5162465 -1.37554,1.2026196 -1.80038,2.05129759 h -0.0401 V -12.687213 h -4.70385 v 31.571209 h 4.02752 l 0.49533,-2.10605 h 0.10299 c 0.37723,0.750903 0.94304,1.339503 1.6994,1.775573 0.75445,0.436072 1.58891,0.653132 2.50909,0.653132 1.65178,0 2.86348,-0.782192 3.64078,-2.340709 0.77923,-1.558518 1.16406,-3.995043 1.16406,-7.3134912 V 6.0325884 c 0.005,-2.4873693 -0.14289,-4.433071 -0.43437,-5.83710495 z m -4.47524,9.07342175 c 0,1.6230478 -0.0629,2.8901988 -0.19622,3.8112298 -0.12574,0.921031 -0.34674,1.574161 -0.65348,1.961346 -0.30673,0.387184 -0.71634,0.580777 -1.23455,0.580777 -0.40198,0 -0.77158,-0.09778 -1.11641,-0.291368 -0.33913,-0.193592 -0.6211,-0.484958 -0.83447,-0.872142 V 1.8243974 c 0.16575,-0.6061985 0.44772,-1.09702376 0.8497,-1.48616404 0.40199,-0.38718486 0.83445,-0.5807773 1.30504,-0.5807773 0.49534,0 0.88019,0.20141435 1.14881,0.59642112 0.26672,0.39500677 0.45534,1.07355792 0.56583,2.01023252 0.10274,0.9444964 0.15813,2.2839996 0.15813,4.0282869 V 9.26695 h 0.007 z m 26.55419,9.9377458 h 4.32663 V -5.7863272 l 4.77054,24.9929782 h 3.99322 l 4.99153,-25.5620226 V 19.237938 h 4.21613 v -30.804662 h -6.87764 l -4.27139,24.339848 -4.49238,-24.339848 h -6.65664 z m 35.05503,0.03129 H 184.752 V -3.3654439 h -4.66003 V 14.482213 c -0.77731,1.36688 -3.54932,2.504967 -3.54932,-0.226836 V -3.3634885 h -4.66003 V 14.939795 c 0,3.871849 5.10394,7.288071 8.65324,1.480296 z m 21.41023,-22.6033827 h 4.32664 V 19.237938 h -4.32664 z m 2.27478,-2.6477188 c -1.49557,0 -2.71868,-1.2554176 -2.71868,-2.7904687 v -0.6824623 c 0,-1.5350515 1.22311,-2.7904685 2.71868,-2.7904685 1.49555,0 2.71867,1.255417 2.71867,2.7904685 v 0.6824623 c -0.002,1.5350511 -1.22312,2.7904687 -2.71867,2.7904687 z m -9.26292,9.8497482 h 3.77222 c 0.11051,-1.8792154 0.22102,-7.571615 -5.65833,-7.571615 -4.88103,0 -6.21275,3.18743085 -6.21275,6.0346084 0,2.8471775 1.40602,4.8574084 5.39925,8.0467959 3.40262,1.822507 3.54932,5.997454 0.73921,5.997454 -1.33172,0 -2.14522,-0.911254 -2.14522,-2.201869 V 12.09262 h -3.99324 v 2.352441 c 0,2.049342 1.33172,5.162465 5.98984,5.162465 4.66004,0 6.28705,-2.657495 6.28705,-6.75618 0,-4.0986842 -8.43035,-8.1230598 -8.43035,-10.9311278 0,-3.2636946 4.19707,-2.90388644 4.19707,-0.5318903 z M 215.0003,1.9945283 c -0.4439,5.1624632 -0.0743,9.1086207 0.0742,11.6135897 0.20195,3.410355 3.69793,3.416222 3.69793,-0.07626 v -2.504972 h 4.06753 c 0,4.554313 -1.55271,8.273633 -5.91745,8.273633 -5.10393,0 -6.58234,-3.71932 -6.58234,-7.667433 V 5.0294277 c 0,-5.31303674 2.21951,-8.881786 6.43375,-8.881786 5.62024,0 5.76884,4.09868417 5.76884,5.9974543 V 4.6500647 L 218.77063,4.953164 V 1.916305 c 0.002,-2.1236503 -2.58723,-4.020465 -3.77033,0.078219 z"
       id="path274"
       style="fill:#ffffff;stroke-width:1.93016" />
    <path
       fill="none"
       d="M -7.2404202,-28.31203 H 222.84005 V 42.06203 H -7.2404202 Z"
       id="path276"
       style="stroke-width:1.79954" />
  </g>
</svg>
